<svg width="1080" xmlns="http://www.w3.org/2000/svg" height="1920" id="screenshot-bc2e7133-bce3-8014-8007-8d12cb84ca4c" viewBox="0 0 1080 1920" xmlns:xlink="http://www.w3.org/1999/xlink" fill="none" version="1.1"><style>/* vietnamese */
@font-face {
  font-family: 'Space Grotesk';
  font-style: normal;
  font-weight: 400;
  font-display: block;
  src: url(http://penpot-frontend:8080/internal/gfonts/font/spacegrotesk/v22/V8mQoQDjQSkFtoMM3T6r8E7mF71Q-gOoraIAEj7oUXsrPMBTTA.woff2) format('woff2');
  unicode-range: U+0102-0103, U+0110-0111, U+0128-0129, U+0168-0169, U+01A0-01A1, U+01AF-01B0, U+0300-0301, U+0303-0304, U+0308-0309, U+0323, U+0329, U+1EA0-1EF9, U+20AB;
}
/* latin-ext */
@font-face {
  font-family: 'Space Grotesk';
  font-style: normal;
  font-weight: 400;
  font-display: block;
  src: url(http://penpot-frontend:8080/internal/gfonts/font/spacegrotesk/v22/V8mQoQDjQSkFtoMM3T6r8E7mF71Q-gOoraIAEj7oUXsqPMBTTA.woff2) format('woff2');
  unicode-range: U+0100-02BA, U+02BD-02C5, U+02C7-02CC, U+02CE-02D7, U+02DD-02FF, U+0304, U+0308, U+0329, U+1D00-1DBF, U+1E00-1E9F, U+1EF2-1EFF, U+2020, U+20A0-20AB, U+20AD-20C0, U+2113, U+2C60-2C7F, U+A720-A7FF;
}
/* latin */
@font-face {
  font-family: 'Space Grotesk';
  font-style: normal;
  font-weight: 400;
  font-display: block;
  src: url(http://penpot-frontend:8080/internal/gfonts/font/spacegrotesk/v22/V8mQoQDjQSkFtoMM3T6r8E7mF71Q-gOoraIAEj7oUXskPMA.woff2) format('woff2');
  unicode-range: U+0000-00FF, U+0131, U+0152-0153, U+02BB-02BC, U+02C6, U+02DA, U+02DC, U+0304, U+0308, U+0329, U+2000-206F, U+20AC, U+2122, U+2191, U+2193, U+2212, U+2215, U+FEFF, U+FFFD;
}
</style><g id="shape-bc2e7133-bce3-8014-8007-8d12cb84ca4c"><defs><clipPath id="frame-clip-bc2e7133-bce3-8014-8007-8d12cb84ca4c-render-1" class="frame-clip frame-clip-def"><rect rx="0" ry="0" x="0" y="0" width="1080" height="1920" transform="matrix(1.000000, 0.000000, 0.000000, 1.000000, 0.000000, 0.000000)"/></clipPath></defs><g class="frame-container-wrapper"><g class="frame-container-blur"><g class="frame-container-shadows"><g clip-path="url(#frame-clip-bc2e7133-bce3-8014-8007-8d12cb84ca4c-render-1)" fill="none"><g class="fills" id="fills-bc2e7133-bce3-8014-8007-8d12cb84ca4c"><rect width="1080" height="1920" class="frame-background" x="0" transform="matrix(1.000000, 0.000000, 0.000000, 1.000000, 0.000000, 0.000000)" style="fill: rgb(45, 49, 50); fill-opacity: 1;" ry="0" rx="0" y="0"/></g><g class="frame-children"><g id="shape-bc2e7133-bce3-8014-8007-8d12cb84ca4e"><g class="fills" id="fills-bc2e7133-bce3-8014-8007-8d12cb84ca4e"><rect rx="0" ry="0" x="-51" y="-396" transform="matrix(1.000000, 0.000000, 0.000000, 1.000000, 0.000000, 0.000000)" width="207" height="207.00000000000006" style="fill: rgb(252, 255, 255); fill-opacity: 0.2;"/></g></g><g id="shape-1f06beb1-9b03-80f5-8007-8f8489066318"><g class="fills" id="fills-1f06beb1-9b03-80f5-8007-8f8489066318"><rect rx="0" ry="0" x="-9.094947017729282e-13" y="-1.1368683772161603e-13" transform="matrix(1.000000, 0.000000, 0.000000, 1.000000, 0.000000, 0.000000)" width="1080" height="245.00000000000006" style="fill: rgb(31, 34, 35); fill-opacity: 1;"/></g></g><g id="shape-bc2e7133-bce3-8014-8007-8d12cb84ca4f"><g class="fills" id="fills-bc2e7133-bce3-8014-8007-8d12cb84ca4f"><rect rx="0" ry="0" x="41" y="63" transform="matrix(1.000000, 0.000000, 0.000000, 1.000000, 0.000000, 0.000000)" width="125" height="125" style="fill: rgb(252, 255, 255); fill-opacity: 1;"/></g></g><g id="shape-d05d7bf6-4bdd-80fb-8007-8f81aeb487d0"><g class="fills" id="fills-d05d7bf6-4bdd-80fb-8007-8f81aeb487d0"><rect rx="0" ry="0" x="41" y="323.9999999999999" transform="matrix(1.000000, 0.000000, 0.000000, 1.000000, 0.000000, 0.000000)" width="125" height="125" style="fill: rgb(252, 255, 255); fill-opacity: 1;"/></g></g><g id="shape-d05d7bf6-4bdd-80fb-8007-8f8251f17657"><g class="fills" id="fills-d05d7bf6-4bdd-80fb-8007-8f8251f17657"><rect rx="0" ry="0" x="40.999999999999545" y="823.9999999999999" transform="matrix(1.000000, 0.000000, 0.000000, 1.000000, 0.000000, 0.000000)" width="125" height="125" style="fill: rgb(252, 255, 255); fill-opacity: 1;"/></g></g><g id="shape-d05d7bf6-4bdd-80fb-8007-8f81fc95b8e3"><g class="fills" id="fills-d05d7bf6-4bdd-80fb-8007-8f81fc95b8e3"><rect rx="0" ry="0" x="912.0000000000018" y="573.9999999999999" transform="matrix(1.000000, 0.000000, 0.000000, 1.000000, 0.000000, 0.000000)" width="125" height="125" style="fill: rgb(252, 255, 255); fill-opacity: 1;"/></g></g><g id="shape-bc2e7133-bce3-8014-8007-8d12cb84ca53"><g class="fills" id="fills-bc2e7133-bce3-8014-8007-8d12cb84ca53"><path d="M71.95458984375,93.37582397460938L137,159L70,159L122.5166015625,106.01589965820312L109.61572265625,93"/></g><g id="strokes-72b9fc48-7eed-8043-8007-8f86161fe5f3-bc2e7133-bce3-8014-8007-8d12cb84ca53" class="strokes"><g class="stroke-shape"><path d="M71.95458984375,93.37582397460938L137,159L70,159L122.5166015625,106.01589965820312L109.61572265625,93" style="fill: none; stroke-width: 8; stroke: rgb(45, 49, 50); stroke-opacity: 1;"/></g></g></g><g id="shape-bc2e7133-bce3-8014-8007-8d12cb84ca54"><g class="fills" id="fills-bc2e7133-bce3-8014-8007-8d12cb84ca54"><path d="M-2,1743C-2,1720.92333984375,15.92333984375,1703,38,1703L1040,1703C1062.07666015625,1703,1080,1720.92333984375,1080,1743L1080,1933C1080,1955.07666015625,1062.07666015625,1973,1040,1973L118.51953125,1973L38,1973C15.92333984375,1973,-2,1955.07666015625,-2,1933L-2,1743" style="fill: rgb(31, 34, 35); fill-opacity: 1;"/></g></g><g id="shape-bc2e7133-bce3-8014-8007-8d12cb84ca55" width="24" class="lucide lucide-info-icon lucide-info" height="24" rx="0" ry="0" style="fill: rgb(0, 0, 0);"><g id="shape-bc2e7133-bce3-8014-8007-8d12cb84ca65" style="display: none;"><g class="fills" id="fills-bc2e7133-bce3-8014-8007-8d12cb84ca65"><rect width="100" height="100" x="489" stroke-linejoin="round" transform="matrix(1.000000, 0.000000, 0.000000, 1.000000, 0.000000, 0.000000)" style="fill: none;" ry="0" fill="none" stroke-linecap="round" rx="0" y="1754"/></g><g fill="none" stroke-linejoin="round" stroke-linecap="round" id="strokes-72b9fc48-7eed-8043-8007-8f8616219a65-bc2e7133-bce3-8014-8007-8d12cb84ca65" class="strokes"><g class="stroke-shape"><rect rx="0" ry="0" x="489" y="1754" transform="matrix(1.000000, 0.000000, 0.000000, 1.000000, 0.000000, 0.000000)" width="100" height="100" style="fill: none; stroke-width: 6; stroke: rgb(252, 255, 255); stroke-opacity: 1;"/></g></g></g><g id="shape-bc2e7133-bce3-8014-8007-8d12cb84ca66"><g class="fills" id="fills-bc2e7133-bce3-8014-8007-8d12cb84ca66"><ellipse cy="1804.000000000001" stroke-linejoin="round" transform="matrix(1.000000, 0.000000, 0.000000, 1.000000, 0.000000, 0.000000)" style="fill: none;" ry="41.66666666666697" fill="none" stroke-linecap="round" rx="41.666666666666515" cx="538.9999999999995"/></g><g fill="none" stroke-linejoin="round" stroke-linecap="round" id="strokes-72b9fc48-7eed-8043-8007-8f861621c13f-bc2e7133-bce3-8014-8007-8d12cb84ca66" class="strokes"><g class="stroke-shape"><ellipse cx="538.9999999999995" cy="1804.000000000001" rx="41.666666666666515" ry="41.66666666666697" transform="matrix(1.000000, 0.000000, 0.000000, 1.000000, 0.000000, 0.000000)" style="fill: none; stroke-width: 6; stroke: rgb(252, 255, 255); stroke-opacity: 1;"/></g></g></g><g id="shape-bc2e7133-bce3-8014-8007-8d12cb84ca67"><g class="fills" id="fills-bc2e7133-bce3-8014-8007-8d12cb84ca67"><path d="M539,1820.666748046875L539,1804" fill="none" stroke-linejoin="round" stroke-linecap="round" style="fill: none;"/></g><g fill="none" stroke-linejoin="round" stroke-linecap="round" id="strokes-72b9fc48-7eed-8043-8007-8f861622117a-bc2e7133-bce3-8014-8007-8d12cb84ca67" class="strokes"><g class="stroke-shape"><path d="M539,1820.666748046875L539,1804" style="fill: none; stroke-width: 6; stroke: rgb(252, 255, 255); stroke-opacity: 1;"/></g></g></g><g id="shape-bc2e7133-bce3-8014-8007-8d12cb84ca68"><g class="fills" id="fills-bc2e7133-bce3-8014-8007-8d12cb84ca68"><path d="M539,1787.333251953125L539.0419921875,1787.333251953125" fill="none" stroke-linejoin="round" stroke-linecap="round" style="fill: none;"/></g><g fill="none" stroke-linejoin="round" stroke-linecap="round" id="strokes-72b9fc48-7eed-8043-8007-8f861622b488-bc2e7133-bce3-8014-8007-8d12cb84ca68" class="strokes"><g class="stroke-shape"><path d="M539,1787.333251953125L539.0419921875,1787.333251953125" style="fill: none; stroke-width: 6; stroke: rgb(252, 255, 255); stroke-opacity: 1;"/></g></g></g></g><g id="shape-bc2e7133-bce3-8014-8007-8d12cb84ca56" width="24" class="lucide lucide-message-square-text-icon lucide-message-square-text" height="24" rx="0" ry="0" style="fill: rgb(0, 0, 0);"><g id="shape-bc2e7133-bce3-8014-8007-8d12cb84ca69" style="display: none;"><g class="fills" id="fills-bc2e7133-bce3-8014-8007-8d12cb84ca69"><rect width="100" height="100" x="259" stroke-linejoin="round" transform="matrix(1.000000, 0.000000, 0.000000, 1.000000, 0.000000, 0.000000)" style="fill: none;" ry="0" fill="none" stroke-linecap="round" rx="0" y="1754"/></g><g fill="none" stroke-linejoin="round" stroke-linecap="round" id="strokes-72b9fc48-7eed-8043-8007-8f861622fecf-bc2e7133-bce3-8014-8007-8d12cb84ca69" class="strokes"><g class="stroke-shape"><rect rx="0" ry="0" x="259" y="1754" transform="matrix(1.000000, 0.000000, 0.000000, 1.000000, 0.000000, 0.000000)" width="100" height="100" style="fill: none; stroke-width: 6; stroke: rgb(252, 255, 255); stroke-opacity: 1;"/></g></g></g><g id="shape-bc2e7133-bce3-8014-8007-8d12cb84ca6a"><g class="fills" id="fills-bc2e7133-bce3-8014-8007-8d12cb84ca6a"><path d="M350.66650390625,1824.8333740234375C350.66650390625,1829.435791015625,346.935546875,1833.1666259765625,342.33349609375,1833.1666259765625L287.4501953125,1833.1666259765625C285.240234375,1833.167236328125,283.12109375,1834.0455322265625,281.55859375,1835.608642578125L272.38330078125,1844.783203125C271.537109375,1845.6290283203125,270.2646484375,1845.88232421875,269.15966796875,1845.4246826171875C268.05419921875,1844.966796875,267.33349609375,1843.887939453125,267.33349609375,1842.691650390625L267.33349609375,1774.8333740234375C267.33349609375,1770.230712890625,271.064453125,1766.5,275.66650390625,1766.5L342.33349609375,1766.5C346.935546875,1766.5,350.66650390625,1770.230712890625,350.66650390625,1774.8333740234375Z" fill="none" stroke-linejoin="round" stroke-linecap="round" style="fill: none;"/></g><g fill="none" stroke-linejoin="round" stroke-linecap="round" id="strokes-72b9fc48-7eed-8043-8007-8f8616235c86-bc2e7133-bce3-8014-8007-8d12cb84ca6a" class="strokes"><g class="stroke-shape"><path d="M350.66650390625,1824.8333740234375C350.66650390625,1829.435791015625,346.935546875,1833.1666259765625,342.33349609375,1833.1666259765625L287.4501953125,1833.1666259765625C285.240234375,1833.167236328125,283.12109375,1834.0455322265625,281.55859375,1835.608642578125L272.38330078125,1844.783203125C271.537109375,1845.6290283203125,270.2646484375,1845.88232421875,269.15966796875,1845.4246826171875C268.05419921875,1844.966796875,267.33349609375,1843.887939453125,267.33349609375,1842.691650390625L267.33349609375,1774.8333740234375C267.33349609375,1770.230712890625,271.064453125,1766.5,275.66650390625,1766.5L342.33349609375,1766.5C346.935546875,1766.5,350.66650390625,1770.230712890625,350.66650390625,1774.8333740234375Z" style="fill: none; stroke-width: 6; stroke: rgb(252, 255, 255); stroke-opacity: 1;"/></g></g></g><g id="shape-bc2e7133-bce3-8014-8007-8d12cb84ca6b"><g class="fills" id="fills-bc2e7133-bce3-8014-8007-8d12cb84ca6b"><path d="M288.16650390625,1799.8333740234375L329.83349609375,1799.8333740234375" fill="none" stroke-linejoin="round" stroke-linecap="round" style="fill: none;"/></g><g fill="none" stroke-linejoin="round" stroke-linecap="round" id="strokes-72b9fc48-7eed-8043-8007-8f861623ab2e-bc2e7133-bce3-8014-8007-8d12cb84ca6b" class="strokes"><g class="stroke-shape"><path d="M288.16650390625,1799.8333740234375L329.83349609375,1799.8333740234375" style="fill: none; stroke-width: 6; stroke: rgb(252, 255, 255); stroke-opacity: 1;"/></g></g></g><g id="shape-bc2e7133-bce3-8014-8007-8d12cb84ca6c"><g class="fills" id="fills-bc2e7133-bce3-8014-8007-8d12cb84ca6c"><path d="M288.16650390625,1816.5L313.16650390625,1816.5" fill="none" stroke-linejoin="round" stroke-linecap="round" style="fill: none;"/></g><g fill="none" stroke-linejoin="round" stroke-linecap="round" id="strokes-72b9fc48-7eed-8043-8007-8f861623d407-bc2e7133-bce3-8014-8007-8d12cb84ca6c" class="strokes"><g class="stroke-shape"><path d="M288.16650390625,1816.5L313.16650390625,1816.5" style="fill: none; stroke-width: 6; stroke: rgb(252, 255, 255); stroke-opacity: 1;"/></g></g></g><g id="shape-bc2e7133-bce3-8014-8007-8d12cb84ca6d"><g class="fills" id="fills-bc2e7133-bce3-8014-8007-8d12cb84ca6d"><path d="M288.16650390625,1783.1666259765625L321.5,1783.1666259765625" fill="none" stroke-linejoin="round" stroke-linecap="round" style="fill: none;"/></g><g fill="none" stroke-linejoin="round" stroke-linecap="round" id="strokes-72b9fc48-7eed-8043-8007-8f8616244e46-bc2e7133-bce3-8014-8007-8d12cb84ca6d" class="strokes"><g class="stroke-shape"><path d="M288.16650390625,1783.1666259765625L321.5,1783.1666259765625" style="fill: none; stroke-width: 6; stroke: rgb(252, 255, 255); stroke-opacity: 1;"/></g></g></g></g><g id="shape-bc2e7133-bce3-8014-8007-8d12cb84ca57" class="size-6" rx="0" ry="0" style="fill: rgb(0, 0, 0);"><g id="shape-bc2e7133-bce3-8014-8007-8d12cb84ca6e" style="display: none;"><g class="fills" id="fills-bc2e7133-bce3-8014-8007-8d12cb84ca6e"><rect width="100" height="100" x="709" transform="matrix(1.000000, 0.000000, 0.000000, 1.000000, 0.000000, 0.000000)" style="fill: none;" ry="0" fill="none" rx="0" y="1745"/></g><g fill="none" id="strokes-72b9fc48-7eed-8043-8007-8f861624c40a-bc2e7133-bce3-8014-8007-8d12cb84ca6e" class="strokes"><g class="outer-stroke-shape"><defs><mask id="outer-stroke-render-22-bc2e7133-bce3-8014-8007-8d12cb84ca6e-0" x="700.5147186257615" y="1736.5147186257614" width="116.97056274847714" height="116.97056274847714" maskUnits="userSpaceOnUse"><use href="#stroke-shape-render-22-bc2e7133-bce3-8014-8007-8d12cb84ca6e-0" style="fill: none; stroke: white; stroke-width: 12;"/><use href="#stroke-shape-render-22-bc2e7133-bce3-8014-8007-8d12cb84ca6e-0" style="fill: black; stroke: none;"/></mask><rect rx="0" ry="0" x="709" y="1745" transform="matrix(1.000000, 0.000000, 0.000000, 1.000000, 0.000000, 0.000000)" width="100" height="100" id="stroke-shape-render-22-bc2e7133-bce3-8014-8007-8d12cb84ca6e-0"/></defs><use href="#stroke-shape-render-22-bc2e7133-bce3-8014-8007-8d12cb84ca6e-0" mask="url(#outer-stroke-render-22-bc2e7133-bce3-8014-8007-8d12cb84ca6e-0)" style="fill: none; stroke-width: 12; stroke: rgb(252, 255, 255); stroke-opacity: 1;"/><use href="#stroke-shape-render-22-bc2e7133-bce3-8014-8007-8d12cb84ca6e-0" style="fill: none; stroke-width: 6; stroke: none; stroke-opacity: 1;"/></g></g></g><g id="shape-bc2e7133-bce3-8014-8007-8d12cb84ca6f"><g class="fills" id="fills-bc2e7133-bce3-8014-8007-8d12cb84ca6f"><path d="M752.095703125,1761.4163818359375C752.470703125,1759.1580810546875,754.42919921875,1757.5,756.720703125,1757.5L761.275390625,1757.5C763.56640625,1757.5,765.52490234375,1759.1580810546875,765.89990234375,1761.4163818359375L766.5205078125,1765.1416015625C766.8125,1766.9085693359375,768.12109375,1768.3250732421875,769.77099609375,1769.016845703125C771.42919921875,1769.699951171875,773.33349609375,1769.6083984375,774.79150390625,1768.566650390625L777.8623046875,1766.3709716796875C779.7275390625,1765.037353515625,782.28369140625,1765.2489013671875,783.904296875,1766.8709716796875L787.125,1770.0955810546875C788.75,1771.716552734375,788.95849609375,1774.27099609375,787.625,1776.1375732421875L785.42919921875,1779.2081298828125C784.3876953125,1780.6668701171875,784.2958984375,1782.566650390625,784.9833984375,1784.2247314453125C785.6708984375,1785.8792724609375,787.087890625,1787.1834716796875,788.8583984375,1787.474853515625L792.5791015625,1788.0999755859375C794.841796875,1788.474853515625,796.49609375,1790.428955078125,796.49609375,1792.7208251953125L796.49609375,1797.2791748046875C796.49609375,1799.571044921875,794.841796875,1801.529296875,792.5791015625,1801.904052734375L788.85400390625,1802.525146484375C787.087890625,1802.8165283203125,785.6708984375,1804.1207275390625,784.9833984375,1805.7752685546875C784.2958984375,1807.433349609375,784.3876953125,1809.3331298828125,785.42919921875,1810.7918701171875L787.625,1813.866455078125C788.95849609375,1815.72900390625,788.74560546875,1818.283447265625,787.125,1819.908447265625L783.89990234375,1823.1290283203125C782.2802734375,1824.74853515625,779.7265625,1824.9600830078125,777.8623046875,1823.6290283203125L774.78759765625,1821.433349609375C773.3291015625,1820.3916015625,771.42919921875,1820.300048828125,769.77490234375,1820.98779296875C768.11669921875,1821.6749267578125,766.81640625,1823.0914306640625,766.5205078125,1824.8583984375L765.89990234375,1828.5836181640625C765.52490234375,1830.8419189453125,763.56640625,1832.5,761.275390625,1832.5L756.716796875,1832.5C754.4248046875,1832.5,752.470703125,1830.8419189453125,752.091796875,1828.5836181640625L751.474609375,1824.8583984375C751.17919921875,1823.0914306640625,749.875,1821.6749267578125,748.220703125,1820.983154296875C746.5625,1820.300048828125,744.66259765625,1820.3916015625,743.2041015625,1821.433349609375L740.12890625,1823.6290283203125C738.2666015625,1824.962646484375,735.71240234375,1824.75,734.08740234375,1823.1290283203125L730.86669921875,1819.9044189453125C729.2451171875,1818.283447265625,729.033203125,1815.7275390625,730.36669921875,1813.8624267578125L732.5625,1810.7918701171875C733.6044921875,1809.3331298828125,733.69580078125,1807.433349609375,733.0126953125,1805.7752685546875C732.3251953125,1804.1207275390625,730.904296875,1802.8165283203125,729.1376953125,1802.525146484375L725.41259765625,1801.9000244140625C723.154296875,1801.525146484375,721.49609375,1799.56640625,721.49609375,1797.2791748046875L721.49609375,1792.7208251953125C721.49609375,1790.428955078125,723.154296875,1788.470703125,725.41259765625,1788.095947265625L729.1376953125,1787.474853515625C730.904296875,1787.1834716796875,732.3251953125,1785.8792724609375,733.0126953125,1784.2247314453125C733.7001953125,1782.566650390625,733.6083984375,1780.6668701171875,732.5625,1779.2081298828125L730.37109375,1776.133544921875C729.03759765625,1774.2684326171875,729.2490234375,1771.7120361328125,730.87109375,1770.091552734375L734.091796875,1766.8709716796875C735.71240234375,1765.2489013671875,738.26806640625,1765.037353515625,740.13330078125,1766.3709716796875L743.2041015625,1768.566650390625C744.66259765625,1769.6083984375,746.56640625,1769.699951171875,748.220703125,1769.01220703125C749.875,1768.3250732421875,751.17919921875,1766.9085693359375,751.470703125,1765.1416015625L752.095703125,1761.4163818359375Z" fill="none" stroke-linecap="round" stroke-linejoin="round" style="fill: none;"/></g><g fill="none" stroke-linecap="round" stroke-linejoin="round" id="strokes-72b9fc48-7eed-8043-8007-8f8616258168-bc2e7133-bce3-8014-8007-8d12cb84ca6f" class="strokes"><g class="outer-stroke-shape"><defs><mask id="outer-stroke-render-23-bc2e7133-bce3-8014-8007-8d12cb84ca6f-0" x="707.0105522610917" y="1743.0147186257614" width="103.97056473529923" height="103.97056274847714" maskUnits="userSpaceOnUse"><use href="#stroke-shape-render-23-bc2e7133-bce3-8014-8007-8d12cb84ca6f-0" style="fill: none; stroke: white; stroke-width: 12;"/><use href="#stroke-shape-render-23-bc2e7133-bce3-8014-8007-8d12cb84ca6f-0" style="fill: black; stroke: none;"/></mask><path d="M752.095703125,1761.4163818359375C752.470703125,1759.1580810546875,754.42919921875,1757.5,756.720703125,1757.5L761.275390625,1757.5C763.56640625,1757.5,765.52490234375,1759.1580810546875,765.89990234375,1761.4163818359375L766.5205078125,1765.1416015625C766.8125,1766.9085693359375,768.12109375,1768.3250732421875,769.77099609375,1769.016845703125C771.42919921875,1769.699951171875,773.33349609375,1769.6083984375,774.79150390625,1768.566650390625L777.8623046875,1766.3709716796875C779.7275390625,1765.037353515625,782.28369140625,1765.2489013671875,783.904296875,1766.8709716796875L787.125,1770.0955810546875C788.75,1771.716552734375,788.95849609375,1774.27099609375,787.625,1776.1375732421875L785.42919921875,1779.2081298828125C784.3876953125,1780.6668701171875,784.2958984375,1782.566650390625,784.9833984375,1784.2247314453125C785.6708984375,1785.8792724609375,787.087890625,1787.1834716796875,788.8583984375,1787.474853515625L792.5791015625,1788.0999755859375C794.841796875,1788.474853515625,796.49609375,1790.428955078125,796.49609375,1792.7208251953125L796.49609375,1797.2791748046875C796.49609375,1799.571044921875,794.841796875,1801.529296875,792.5791015625,1801.904052734375L788.85400390625,1802.525146484375C787.087890625,1802.8165283203125,785.6708984375,1804.1207275390625,784.9833984375,1805.7752685546875C784.2958984375,1807.433349609375,784.3876953125,1809.3331298828125,785.42919921875,1810.7918701171875L787.625,1813.866455078125C788.95849609375,1815.72900390625,788.74560546875,1818.283447265625,787.125,1819.908447265625L783.89990234375,1823.1290283203125C782.2802734375,1824.74853515625,779.7265625,1824.9600830078125,777.8623046875,1823.6290283203125L774.78759765625,1821.433349609375C773.3291015625,1820.3916015625,771.42919921875,1820.300048828125,769.77490234375,1820.98779296875C768.11669921875,1821.6749267578125,766.81640625,1823.0914306640625,766.5205078125,1824.8583984375L765.89990234375,1828.5836181640625C765.52490234375,1830.8419189453125,763.56640625,1832.5,761.275390625,1832.5L756.716796875,1832.5C754.4248046875,1832.5,752.470703125,1830.8419189453125,752.091796875,1828.5836181640625L751.474609375,1824.8583984375C751.17919921875,1823.0914306640625,749.875,1821.6749267578125,748.220703125,1820.983154296875C746.5625,1820.300048828125,744.66259765625,1820.3916015625,743.2041015625,1821.433349609375L740.12890625,1823.6290283203125C738.2666015625,1824.962646484375,735.71240234375,1824.75,734.08740234375,1823.1290283203125L730.86669921875,1819.9044189453125C729.2451171875,1818.283447265625,729.033203125,1815.7275390625,730.36669921875,1813.8624267578125L732.5625,1810.7918701171875C733.6044921875,1809.3331298828125,733.69580078125,1807.433349609375,733.0126953125,1805.7752685546875C732.3251953125,1804.1207275390625,730.904296875,1802.8165283203125,729.1376953125,1802.525146484375L725.41259765625,1801.9000244140625C723.154296875,1801.525146484375,721.49609375,1799.56640625,721.49609375,1797.2791748046875L721.49609375,1792.7208251953125C721.49609375,1790.428955078125,723.154296875,1788.470703125,725.41259765625,1788.095947265625L729.1376953125,1787.474853515625C730.904296875,1787.1834716796875,732.3251953125,1785.8792724609375,733.0126953125,1784.2247314453125C733.7001953125,1782.566650390625,733.6083984375,1780.6668701171875,732.5625,1779.2081298828125L730.37109375,1776.133544921875C729.03759765625,1774.2684326171875,729.2490234375,1771.7120361328125,730.87109375,1770.091552734375L734.091796875,1766.8709716796875C735.71240234375,1765.2489013671875,738.26806640625,1765.037353515625,740.13330078125,1766.3709716796875L743.2041015625,1768.566650390625C744.66259765625,1769.6083984375,746.56640625,1769.699951171875,748.220703125,1769.01220703125C749.875,1768.3250732421875,751.17919921875,1766.9085693359375,751.470703125,1765.1416015625L752.095703125,1761.4163818359375Z" id="stroke-shape-render-23-bc2e7133-bce3-8014-8007-8d12cb84ca6f-0"/></defs><use href="#stroke-shape-render-23-bc2e7133-bce3-8014-8007-8d12cb84ca6f-0" mask="url(#outer-stroke-render-23-bc2e7133-bce3-8014-8007-8d12cb84ca6f-0)" style="fill: none; stroke-width: 12; stroke: rgb(252, 255, 255); stroke-opacity: 1;"/><use href="#stroke-shape-render-23-bc2e7133-bce3-8014-8007-8d12cb84ca6f-0" style="fill: none; stroke-width: 6; stroke: none; stroke-opacity: 1;"/></g></g></g><g id="shape-bc2e7133-bce3-8014-8007-8d12cb84ca70"><g class="fills" id="fills-bc2e7133-bce3-8014-8007-8d12cb84ca70"><path d="M771.5,1795C771.5,1801.903564453125,765.9033203125,1807.5,759,1807.5C752.0966796875,1807.5,746.5,1801.903564453125,746.5,1795C746.5,1788.096435546875,752.0966796875,1782.5,759,1782.5C765.9033203125,1782.5,771.5,1788.096435546875,771.5,1795Z" fill="none" stroke-linecap="round" stroke-linejoin="round" style="fill: none;"/></g><g fill="none" stroke-linecap="round" stroke-linejoin="round" id="strokes-72b9fc48-7eed-8043-8007-8f8616267d58-bc2e7133-bce3-8014-8007-8d12cb84ca70" class="strokes"><g class="outer-stroke-shape"><defs><mask id="outer-stroke-render-24-bc2e7133-bce3-8014-8007-8d12cb84ca70-0" x="732.0147186257615" y="1768.0147186257614" width="53.970562748477136" height="53.970562748477136" maskUnits="userSpaceOnUse"><use href="#stroke-shape-render-24-bc2e7133-bce3-8014-8007-8d12cb84ca70-0" style="fill: none; stroke: white; stroke-width: 12;"/><use href="#stroke-shape-render-24-bc2e7133-bce3-8014-8007-8d12cb84ca70-0" style="fill: black; stroke: none;"/></mask><path d="M771.5,1795C771.5,1801.903564453125,765.9033203125,1807.5,759,1807.5C752.0966796875,1807.5,746.5,1801.903564453125,746.5,1795C746.5,1788.096435546875,752.0966796875,1782.5,759,1782.5C765.9033203125,1782.5,771.5,1788.096435546875,771.5,1795Z" id="stroke-shape-render-24-bc2e7133-bce3-8014-8007-8d12cb84ca70-0"/></defs><use href="#stroke-shape-render-24-bc2e7133-bce3-8014-8007-8d12cb84ca70-0" mask="url(#outer-stroke-render-24-bc2e7133-bce3-8014-8007-8d12cb84ca70-0)" style="fill: none; stroke-width: 12; stroke: rgb(252, 255, 255); stroke-opacity: 1;"/><use href="#stroke-shape-render-24-bc2e7133-bce3-8014-8007-8d12cb84ca70-0" style="fill: none; stroke-width: 6; stroke: none; stroke-opacity: 1;"/></g></g></g></g><g id="shape-bc2e7133-bce3-8014-8007-8d12cb84ca58"><g transform="matrix(1.000000, 0.000000, 0.000000, 1.000000, 0.000000, 0.000000)" class="text-container" x="196" y="83" width="395" height="87" rx="0" ry="0"><defs><pattern patternUnits="objectBoundingBox" width="394.359375" height="92" id="fill-0-render-25-0"><g><rect width="394.359375" height="92" style="fill: rgb(252, 255, 255); fill-opacity: 1;"/></g></pattern></defs><g class="fills" id="fills-bc2e7133-bce3-8014-8007-8d12cb84ca58"><text x="196" y="172" dominant-baseline="ideographic" textLength="394.359375" lengthAdjust="spacingAndGlyphs" style="text-transform: none; font-family: &quot;Space Grotesk&quot;; letter-spacing: normal; font-style: normal; font-weight: 400; white-space: pre; font-size: 72px; text-decoration: none; direction: ltr; fill: rgb(252, 255, 255); fill-opacity: 1;">Username 1</text></g></g></g><g id="shape-554e8fa7-3ecc-802b-8007-8f82f957e293"><g class="fills" id="fills-554e8fa7-3ecc-802b-8007-8f82f957e293"><rect rx="0" ry="0" x="41" y="514.9999999999999" transform="matrix(1.000000, 0.000000, 0.000000, 1.000000, 0.000000, 0.000000)" width="786" height="184" style="fill: rgb(177, 178, 181); fill-opacity: 1;"/></g></g><g id="shape-554e8fa7-3ecc-802b-8007-8f833e61ca2c"><g class="fills" id="fills-554e8fa7-3ecc-802b-8007-8f833e61ca2c"><rect rx="0" ry="0" x="251" y="764.9999999999999" transform="matrix(1.000000, 0.000000, 0.000000, 1.000000, 0.000000, 0.000000)" width="786" height="184" style="fill: rgb(177, 178, 181); fill-opacity: 1;"/></g></g><g id="shape-554e8fa7-3ecc-802b-8007-8f834ccd438a"><g class="fills" id="fills-554e8fa7-3ecc-802b-8007-8f834ccd438a"><rect rx="0" ry="0" x="41" y="1008.9999999999999" transform="matrix(1.000000, 0.000000, 0.000000, 1.000000, 0.000000, 0.000000)" width="786" height="184.0000000000001" style="fill: rgb(177, 178, 181); fill-opacity: 1;"/></g></g><g id="shape-554e8fa7-3ecc-802b-8007-8f835cd0aad1"><g class="fills" id="fills-554e8fa7-3ecc-802b-8007-8f835cd0aad1"><rect rx="0" ry="0" x="41" y="1318" transform="matrix(1.000000, 0.000000, 0.000000, 1.000000, 0.000000, 0.000000)" width="125" height="125" style="fill: rgb(252, 255, 255); fill-opacity: 1;"/></g></g><g id="shape-554e8fa7-3ecc-802b-8007-8f835cd0aad2"><g class="fills" id="fills-554e8fa7-3ecc-802b-8007-8f835cd0aad2"><rect rx="0" ry="0" x="912" y="1068" transform="matrix(1.000000, 0.000000, 0.000000, 1.000000, 0.000000, 0.000000)" width="125" height="125" style="fill: rgb(252, 255, 255); fill-opacity: 1;"/></g></g><g id="shape-554e8fa7-3ecc-802b-8007-8f835cd0aad3"><g class="fills" id="fills-554e8fa7-3ecc-802b-8007-8f835cd0aad3"><rect rx="0" ry="0" x="251" y="1259" transform="matrix(1.000000, 0.000000, 0.000000, 1.000000, 0.000000, 0.000000)" width="786" height="184" style="fill: rgb(177, 178, 181); fill-opacity: 1;"/></g></g><g id="shape-554e8fa7-3ecc-802b-8007-8f835cd0aad4"><g class="fills" id="fills-554e8fa7-3ecc-802b-8007-8f835cd0aad4"><rect rx="0" ry="0" x="41" y="1503" transform="matrix(1.000000, 0.000000, 0.000000, 1.000000, 0.000000, 0.000000)" width="786" height="184" style="fill: rgb(177, 178, 181); fill-opacity: 1;"/></g></g></g></g></g></g></g></g></svg>