<svg width="1080" xmlns="http://www.w3.org/2000/svg" height="1920" id="screenshot-673ef92b-6075-80fe-8007-867fa1133be3" viewBox="0 0 1080 1920" xmlns:xlink="http://www.w3.org/1999/xlink" fill="none" version="1.1"><style>/* latin-ext */
@font-face {
  font-family: 'Chelsea Market';
  font-style: normal;
  font-weight: 400;
  font-display: block;
  src: url(http://penpot-frontend:8080/internal/gfonts/font/chelseamarket/v14/BCawqZsHqfr89WNP_IApC8tzKChsJg8eKg.woff2) format('woff2');
  unicode-range: U+0100-02BA, U+02BD-02C5, U+02C7-02CC, U+02CE-02D7, U+02DD-02FF, U+0304, U+0308, U+0329, U+1D00-1DBF, U+1E00-1E9F, U+1EF2-1EFF, U+2020, U+20A0-20AB, U+20AD-20C0, U+2113, U+2C60-2C7F, U+A720-A7FF;
}
/* latin */
@font-face {
  font-family: 'Chelsea Market';
  font-style: normal;
  font-weight: 400;
  font-display: block;
  src: url(http://penpot-frontend:8080/internal/gfonts/font/chelseamarket/v14/BCawqZsHqfr89WNP_IApC8tzKChiJg8.woff2) format('woff2');
  unicode-range: U+0000-00FF, U+0131, U+0152-0153, U+02BB-02BC, U+02C6, U+02DA, U+02DC, U+0304, U+0308, U+0329, U+2000-206F, U+20AC, U+2122, U+2191, U+2193, U+2212, U+2215, U+FEFF, U+FFFD;
}

/* vietnamese */
@font-face {
  font-family: 'Space Grotesk';
  font-style: normal;
  font-weight: 400;
  font-display: block;
  src: url(http://penpot-frontend:8080/internal/gfonts/font/spacegrotesk/v22/V8mQoQDjQSkFtoMM3T6r8E7mF71Q-gOoraIAEj7oUXsrPMBTTA.woff2) format('woff2');
  unicode-range: U+0102-0103, U+0110-0111, U+0128-0129, U+0168-0169, U+01A0-01A1, U+01AF-01B0, U+0300-0301, U+0303-0304, U+0308-0309, U+0323, U+0329, U+1EA0-1EF9, U+20AB;
}
/* latin-ext */
@font-face {
  font-family: 'Space Grotesk';
  font-style: normal;
  font-weight: 400;
  font-display: block;
  src: url(http://penpot-frontend:8080/internal/gfonts/font/spacegrotesk/v22/V8mQoQDjQSkFtoMM3T6r8E7mF71Q-gOoraIAEj7oUXsqPMBTTA.woff2) format('woff2');
  unicode-range: U+0100-02BA, U+02BD-02C5, U+02C7-02CC, U+02CE-02D7, U+02DD-02FF, U+0304, U+0308, U+0329, U+1D00-1DBF, U+1E00-1E9F, U+1EF2-1EFF, U+2020, U+20A0-20AB, U+20AD-20C0, U+2113, U+2C60-2C7F, U+A720-A7FF;
}
/* latin */
@font-face {
  font-family: 'Space Grotesk';
  font-style: normal;
  font-weight: 400;
  font-display: block;
  src: url(http://penpot-frontend:8080/internal/gfonts/font/spacegrotesk/v22/V8mQoQDjQSkFtoMM3T6r8E7mF71Q-gOoraIAEj7oUXskPMA.woff2) format('woff2');
  unicode-range: U+0000-00FF, U+0131, U+0152-0153, U+02BB-02BC, U+02C6, U+02DA, U+02DC, U+0304, U+0308, U+0329, U+2000-206F, U+20AC, U+2122, U+2191, U+2193, U+2212, U+2215, U+FEFF, U+FFFD;
}
</style><g id="shape-673ef92b-6075-80fe-8007-867fa1133be3"><defs><clipPath id="frame-clip-673ef92b-6075-80fe-8007-867fa1133be3-render-112" class="frame-clip frame-clip-def"><rect rx="0" ry="0" x="0" y="0" width="1080" height="1920" transform="matrix(1.000000, 0.000000, 0.000000, 1.000000, 0.000000, 0.000000)"/></clipPath></defs><g class="frame-container-wrapper"><g class="frame-container-blur"><g class="frame-container-shadows"><g clip-path="url(#frame-clip-673ef92b-6075-80fe-8007-867fa1133be3-render-112)" fill="none"><g class="fills" id="fills-673ef92b-6075-80fe-8007-867fa1133be3"><rect width="1080" height="1920" class="frame-background" x="0" transform="matrix(1.000000, 0.000000, 0.000000, 1.000000, 0.000000, 0.000000)" style="fill: rgb(45, 49, 50); fill-opacity: 1;" ry="0" rx="0" y="0"/></g><g class="frame-children"><g id="shape-1dead33a-1f23-8093-8007-83fc26c893cb"><g class="fills" id="fills-1dead33a-1f23-8093-8007-83fc26c893cb"><rect rx="0" ry="0" x="-51" y="-396" transform="matrix(1.000000, 0.000000, 0.000000, 1.000000, 0.000000, 0.000000)" width="207" height="207.00000000000006" style="fill: rgb(252, 255, 255); fill-opacity: 0.2;"/></g></g><g id="shape-ad6eafe9-0bf7-805a-8007-8409c67f2239"><g transform="matrix(1.000000, 0.000000, 0.000000, 1.000000, 0.000000, 0.000000)" class="text-container" x="194.00000000000006" y="469" width="276.99999999999994" height="58" rx="0" ry="0"><defs><pattern patternUnits="objectBoundingBox" width="276.890625" height="61" id="fill-0-render-114-0"><g><rect width="276.890625" height="61" style="fill: rgb(252, 255, 255); fill-opacity: 1;"/></g></pattern></defs><g class="fills" id="fills-ad6eafe9-0bf7-805a-8007-8409c67f2239"><text x="194.00000000000006" y="528" dominant-baseline="ideographic" textLength="276.890625" lengthAdjust="spacingAndGlyphs" style="text-transform: none; font-family: &quot;Chelsea Market&quot;; letter-spacing: normal; font-style: normal; font-weight: 400; white-space: pre; font-size: 48px; text-decoration: none; direction: ltr; fill: rgb(252, 255, 255); fill-opacity: 1;">Username 1</text></g></g></g><g id="shape-ad6eafe9-0bf7-805a-8007-840a3ab4353d"><g transform="matrix(1.000000, 0.000000, 0.000000, 1.000000, 0.000000, 0.000000)" class="text-container" x="194" y="549" width="281" height="44" rx="0" ry="0"><defs><pattern patternUnits="objectBoundingBox" width="280.515625" height="46" id="fill-0-render-115-0"><g><rect width="280.515625" height="46" style="fill: rgb(252, 255, 255); fill-opacity: 0.5;"/></g></pattern></defs><g class="fills" id="fills-ad6eafe9-0bf7-805a-8007-840a3ab4353d"><text x="194" y="593" dominant-baseline="ideographic" textLength="280.515625" lengthAdjust="spacingAndGlyphs" style="text-transform: none; font-family: &quot;Chelsea Market&quot;; letter-spacing: normal; font-style: normal; font-weight: 400; white-space: pre; font-size: 36px; text-decoration: none; direction: ltr; fill: rgb(252, 255, 255); fill-opacity: 0.5;">Latest Message</text></g></g></g><g id="shape-ad6eafe9-0bf7-805a-8007-840a73c2f41d"><g transform="matrix(1.000000, 0.000000, 0.000000, 1.000000, 0.000000, 0.000000)" class="text-container" x="194" y="795" width="281" height="44" rx="0" ry="0"><defs><pattern patternUnits="objectBoundingBox" width="280.515625" height="46" id="fill-0-render-116-0"><g><rect width="280.515625" height="46" style="fill: rgb(252, 255, 255); fill-opacity: 0.5;"/></g></pattern></defs><g class="fills" id="fills-ad6eafe9-0bf7-805a-8007-840a73c2f41d"><text x="194" y="839" dominant-baseline="ideographic" textLength="280.515625" lengthAdjust="spacingAndGlyphs" style="text-transform: none; font-family: &quot;Chelsea Market&quot;; letter-spacing: normal; font-style: normal; font-weight: 400; white-space: pre; font-size: 36px; text-decoration: none; direction: ltr; fill: rgb(252, 255, 255); fill-opacity: 0.5;">Latest Message</text></g></g></g><g id="shape-ad6eafe9-0bf7-805a-8007-840a79762049"><g transform="matrix(1.000000, 0.000000, 0.000000, 1.000000, 0.000000, 0.000000)" class="text-container" x="194" y="1021" width="281" height="44" rx="0" ry="0"><defs><pattern patternUnits="objectBoundingBox" width="280.515625" height="46" id="fill-0-render-117-0"><g><rect width="280.515625" height="46" style="fill: rgb(252, 255, 255); fill-opacity: 0.5;"/></g></pattern></defs><g class="fills" id="fills-ad6eafe9-0bf7-805a-8007-840a79762049"><text x="194" y="1065" dominant-baseline="ideographic" textLength="280.515625" lengthAdjust="spacingAndGlyphs" style="text-transform: none; font-family: &quot;Chelsea Market&quot;; letter-spacing: normal; font-style: normal; font-weight: 400; white-space: pre; font-size: 36px; text-decoration: none; direction: ltr; fill: rgb(252, 255, 255); fill-opacity: 0.5;">Latest Message</text></g></g></g><g id="shape-ad6eafe9-0bf7-805a-8007-840a7d70b377"><g transform="matrix(1.000000, 0.000000, 0.000000, 1.000000, 0.000000, 0.000000)" class="text-container" x="193" y="1231" width="281" height="44" rx="0" ry="0"><defs><pattern patternUnits="objectBoundingBox" width="280.515625" height="46" id="fill-0-render-118-0"><g><rect width="280.515625" height="46" style="fill: rgb(252, 255, 255); fill-opacity: 0.5;"/></g></pattern></defs><g class="fills" id="fills-ad6eafe9-0bf7-805a-8007-840a7d70b377"><text x="193" y="1275" dominant-baseline="ideographic" textLength="280.515625" lengthAdjust="spacingAndGlyphs" style="text-transform: none; font-family: &quot;Chelsea Market&quot;; letter-spacing: normal; font-style: normal; font-weight: 400; white-space: pre; font-size: 36px; text-decoration: none; direction: ltr; fill: rgb(252, 255, 255); fill-opacity: 0.5;">Latest Message</text></g></g></g><g id="shape-ad6eafe9-0bf7-805a-8007-840a8560045a"><g transform="matrix(1.000000, 0.000000, 0.000000, 1.000000, 0.000000, 0.000000)" class="text-container" x="193" y="1448" width="281" height="44" rx="0" ry="0"><defs><pattern patternUnits="objectBoundingBox" width="280.515625" height="46" id="fill-0-render-119-0"><g><rect width="280.515625" height="46" style="fill: rgb(252, 255, 255); fill-opacity: 0.5;"/></g></pattern></defs><g class="fills" id="fills-ad6eafe9-0bf7-805a-8007-840a8560045a"><text x="193" y="1492" dominant-baseline="ideographic" textLength="280.515625" lengthAdjust="spacingAndGlyphs" style="text-transform: none; font-family: &quot;Chelsea Market&quot;; letter-spacing: normal; font-style: normal; font-weight: 400; white-space: pre; font-size: 36px; text-decoration: none; direction: ltr; fill: rgb(252, 255, 255); fill-opacity: 0.5;">Latest Message</text></g></g></g><g id="shape-ad6eafe9-0bf7-805a-8007-840a8ba86699"><g transform="matrix(1.000000, 0.000000, 0.000000, 1.000000, 0.000000, 0.000000)" class="text-container" x="193" y="1659" width="281" height="44" rx="0" ry="0"><defs><pattern patternUnits="objectBoundingBox" width="280.515625" height="46" id="fill-0-render-120-0"><g><rect width="280.515625" height="46" style="fill: rgb(252, 255, 255); fill-opacity: 0.5;"/></g></pattern></defs><g class="fills" id="fills-ad6eafe9-0bf7-805a-8007-840a8ba86699"><text x="193" y="1703" dominant-baseline="ideographic" textLength="280.515625" lengthAdjust="spacingAndGlyphs" style="text-transform: none; font-family: &quot;Chelsea Market&quot;; letter-spacing: normal; font-style: normal; font-weight: 400; white-space: pre; font-size: 36px; text-decoration: none; direction: ltr; fill: rgb(252, 255, 255); fill-opacity: 0.5;">Latest Message</text></g></g></g><g id="shape-ad6eafe9-0bf7-805a-8007-840a0461f5be"><g transform="matrix(1.000000, 0.000000, 0.000000, 1.000000, 0.000000, 0.000000)" class="text-container" x="194" y="713" width="291" height="58" rx="0" ry="0"><defs><pattern patternUnits="objectBoundingBox" width="290.671875" height="61" id="fill-0-render-121-0"><g><rect width="290.671875" height="61" style="fill: rgb(252, 255, 255); fill-opacity: 1;"/></g></pattern></defs><g class="fills" id="fills-ad6eafe9-0bf7-805a-8007-840a0461f5be"><text x="194" y="772" dominant-baseline="ideographic" textLength="290.671875" lengthAdjust="spacingAndGlyphs" style="text-transform: none; font-family: &quot;Chelsea Market&quot;; letter-spacing: normal; font-style: normal; font-weight: 400; white-space: pre; font-size: 48px; text-decoration: none; direction: ltr; fill: rgb(252, 255, 255); fill-opacity: 1;">Username 2</text></g></g></g><g id="shape-ad6eafe9-0bf7-805a-8007-840a083c8191"><g transform="matrix(1.000000, 0.000000, 0.000000, 1.000000, 0.000000, 0.000000)" class="text-container" x="194" y="941" width="291" height="58" rx="0" ry="0"><defs><pattern patternUnits="objectBoundingBox" width="290.484375" height="61" id="fill-0-render-122-0"><g><rect width="290.484375" height="61" style="fill: rgb(252, 255, 255); fill-opacity: 1;"/></g></pattern></defs><g class="fills" id="fills-ad6eafe9-0bf7-805a-8007-840a083c8191"><text x="194" y="1000" dominant-baseline="ideographic" textLength="290.484375" lengthAdjust="spacingAndGlyphs" style="text-transform: none; font-family: &quot;Chelsea Market&quot;; letter-spacing: normal; font-style: normal; font-weight: 400; white-space: pre; font-size: 48px; text-decoration: none; direction: ltr; fill: rgb(252, 255, 255); fill-opacity: 1;">Username 3</text></g></g></g><g id="shape-ad6eafe9-0bf7-805a-8007-840a0d0aba7a"><g transform="matrix(1.000000, 0.000000, 0.000000, 1.000000, 0.000000, 0.000000)" class="text-container" x="194" y="1150" width="291" height="58" rx="0" ry="0"><defs><pattern patternUnits="objectBoundingBox" width="290.8125" height="61" id="fill-0-render-123-0"><g><rect width="290.8125" height="61" style="fill: rgb(252, 255, 255); fill-opacity: 1;"/></g></pattern></defs><g class="fills" id="fills-ad6eafe9-0bf7-805a-8007-840a0d0aba7a"><text x="194" y="1209" dominant-baseline="ideographic" textLength="290.8125" lengthAdjust="spacingAndGlyphs" style="text-transform: none; font-family: &quot;Chelsea Market&quot;; letter-spacing: normal; font-style: normal; font-weight: 400; white-space: pre; font-size: 48px; text-decoration: none; direction: ltr; fill: rgb(252, 255, 255); fill-opacity: 1;">Username 4</text></g></g></g><g id="shape-ad6eafe9-0bf7-805a-8007-840a100cdb0a"><g transform="matrix(1.000000, 0.000000, 0.000000, 1.000000, 0.000000, 0.000000)" class="text-container" x="194" y="1367" width="291" height="58" rx="0" ry="0"><defs><pattern patternUnits="objectBoundingBox" width="290.25" height="61" id="fill-0-render-124-0"><g><rect width="290.25" height="61" style="fill: rgb(252, 255, 255); fill-opacity: 1;"/></g></pattern></defs><g class="fills" id="fills-ad6eafe9-0bf7-805a-8007-840a100cdb0a"><text x="194" y="1426" dominant-baseline="ideographic" textLength="290.25" lengthAdjust="spacingAndGlyphs" style="text-transform: none; font-family: &quot;Chelsea Market&quot;; letter-spacing: normal; font-style: normal; font-weight: 400; white-space: pre; font-size: 48px; text-decoration: none; direction: ltr; fill: rgb(252, 255, 255); fill-opacity: 1;">Username 5</text></g></g></g><g id="shape-ad6eafe9-0bf7-805a-8007-840a13a1635d"><g transform="matrix(1.000000, 0.000000, 0.000000, 1.000000, 0.000000, 0.000000)" class="text-container" x="194" y="1576" width="287" height="58" rx="0" ry="0"><defs><pattern patternUnits="objectBoundingBox" width="286.546875" height="61" id="fill-0-render-125-0"><g><rect width="286.546875" height="61" style="fill: rgb(252, 255, 255); fill-opacity: 1;"/></g></pattern></defs><g class="fills" id="fills-ad6eafe9-0bf7-805a-8007-840a13a1635d"><text x="194" y="1635" dominant-baseline="ideographic" textLength="286.546875" lengthAdjust="spacingAndGlyphs" style="text-transform: none; font-family: &quot;Chelsea Market&quot;; letter-spacing: normal; font-style: normal; font-weight: 400; white-space: pre; font-size: 48px; text-decoration: none; direction: ltr; fill: rgb(252, 255, 255); fill-opacity: 1;">Username 6</text></g></g></g><g id="shape-1dead33a-1f23-8093-8007-83fbc1689efe"><g class="fills" id="fills-1dead33a-1f23-8093-8007-83fbc1689efe"><rect rx="0" ry="0" x="478" y="63" transform="matrix(1.000000, 0.000000, 0.000000, 1.000000, 0.000000, 0.000000)" width="125" height="125" style="fill: rgb(252, 255, 255); fill-opacity: 1;"/></g></g><g id="shape-ad6eafe9-0bf7-805a-8007-84089ec01558"><g class="fills" id="fills-ad6eafe9-0bf7-805a-8007-84089ec01558"><rect rx="0" ry="0" x="41" y="469" transform="matrix(1.000000, 0.000000, 0.000000, 1.000000, 0.000000, 0.000000)" width="125" height="125" style="fill: rgb(252, 255, 255); fill-opacity: 1;"/></g></g><g id="shape-ad6eafe9-0bf7-805a-8007-8408a39b6df5"><g class="fills" id="fills-ad6eafe9-0bf7-805a-8007-8408a39b6df5"><rect rx="0" ry="0" x="41" y="713" transform="matrix(1.000000, 0.000000, 0.000000, 1.000000, 0.000000, 0.000000)" width="125" height="125" style="fill: rgb(252, 255, 255); fill-opacity: 1;"/></g></g><g id="shape-ad6eafe9-0bf7-805a-8007-8408abfdabeb"><g class="fills" id="fills-ad6eafe9-0bf7-805a-8007-8408abfdabeb"><rect rx="0" ry="0" x="41" y="940" transform="matrix(1.000000, 0.000000, 0.000000, 1.000000, 0.000000, 0.000000)" width="125" height="125" style="fill: rgb(252, 255, 255); fill-opacity: 1;"/></g></g><g id="shape-1dead33a-1f23-8093-8007-83fcc0a72719"><g class="fills" id="fills-1dead33a-1f23-8093-8007-83fcc0a72719"><path d="M508.95458984375,93.37582397460938L574,159L507,159L559.5167236328125,106.01589965820312L546.6156616210938,93"/></g><g id="strokes-72b9fc48-7eed-8043-8007-8f861641f706-1dead33a-1f23-8093-8007-83fcc0a72719" class="strokes"><g class="stroke-shape"><path d="M508.95458984375,93.37582397460938L574,159L507,159L559.5167236328125,106.01589965820312L546.6156616210938,93" style="fill: none; stroke-width: 8; stroke: rgb(45, 49, 50); stroke-opacity: 1;"/></g></g></g><g id="shape-ad6eafe9-0bf7-805a-8007-8408b0f76d04"><g class="fills" id="fills-ad6eafe9-0bf7-805a-8007-8408b0f76d04"><rect rx="0" ry="0" x="41" y="1149" transform="matrix(1.000000, 0.000000, 0.000000, 1.000000, 0.000000, 0.000000)" width="125" height="125" style="fill: rgb(252, 255, 255); fill-opacity: 1;"/></g></g><g id="shape-673ef92b-6075-80fe-8007-8684fadf6ab4"><g class="fills" id="fills-673ef92b-6075-80fe-8007-8684fadf6ab4"><rect rx="40" ry="40" x="-2" y="1703.0000000000005" transform="matrix(1.000000, 0.000000, 0.000000, 1.000000, 0.000000, 0.000000)" width="1082" height="270" style="fill: rgb(31, 34, 35); fill-opacity: 1;"/></g></g><g id="shape-ad6eafe9-0bf7-805a-8007-840d4923cabf" width="24" class="lucide lucide-info-icon lucide-info" height="24" rx="0" ry="0" style="fill: rgb(0, 0, 0);"><g id="shape-ad6eafe9-0bf7-805a-8007-840d4924a58c" style="display: none;"><g class="fills" id="fills-ad6eafe9-0bf7-805a-8007-840d4924a58c"><rect width="100" height="100" x="489" stroke-linejoin="round" transform="matrix(1.000000, 0.000000, 0.000000, 1.000000, 0.000000, 0.000000)" style="fill: none;" ry="0" fill="none" stroke-linecap="round" rx="0" y="1754"/></g><g fill="none" stroke-linejoin="round" stroke-linecap="round" id="strokes-72b9fc48-7eed-8043-8007-8f861642551f-ad6eafe9-0bf7-805a-8007-840d4924a58c" class="strokes"><g class="stroke-shape"><rect rx="0" ry="0" x="489" y="1754" transform="matrix(1.000000, 0.000000, 0.000000, 1.000000, 0.000000, 0.000000)" width="100" height="100" style="fill: none; stroke-width: 6; stroke: rgb(252, 255, 255); stroke-opacity: 1;"/></g></g></g><g id="shape-ad6eafe9-0bf7-805a-8007-840d4924d997"><g class="fills" id="fills-ad6eafe9-0bf7-805a-8007-840d4924d997"><ellipse cy="1804.000000000001" stroke-linejoin="round" transform="matrix(1.000000, 0.000000, 0.000000, 1.000000, 0.000000, 0.000000)" style="fill: none;" ry="41.66666666666697" fill="none" stroke-linecap="round" rx="41.666666666666515" cx="538.9999999999995"/></g><g fill="none" stroke-linejoin="round" stroke-linecap="round" id="strokes-72b9fc48-7eed-8043-8007-8f8616428607-ad6eafe9-0bf7-805a-8007-840d4924d997" class="strokes"><g class="stroke-shape"><ellipse cx="538.9999999999995" cy="1804.000000000001" rx="41.666666666666515" ry="41.66666666666697" transform="matrix(1.000000, 0.000000, 0.000000, 1.000000, 0.000000, 0.000000)" style="fill: none; stroke-width: 6; stroke: rgb(252, 255, 255); stroke-opacity: 1;"/></g></g></g><g id="shape-ad6eafe9-0bf7-805a-8007-840d4924d998"><g class="fills" id="fills-ad6eafe9-0bf7-805a-8007-840d4924d998"><path d="M539,1820.666748046875L539,1804" fill="none" stroke-linejoin="round" stroke-linecap="round" style="fill: none;"/></g><g fill="none" stroke-linejoin="round" stroke-linecap="round" id="strokes-72b9fc48-7eed-8043-8007-8f8616428608-ad6eafe9-0bf7-805a-8007-840d4924d998" class="strokes"><g class="stroke-shape"><path d="M539,1820.666748046875L539,1804" style="fill: none; stroke-width: 6; stroke: rgb(252, 255, 255); stroke-opacity: 1;"/></g></g></g><g id="shape-ad6eafe9-0bf7-805a-8007-840d4924d999"><g class="fills" id="fills-ad6eafe9-0bf7-805a-8007-840d4924d999"><path d="M539,1787.333251953125L539.041748046875,1787.333251953125" fill="none" stroke-linejoin="round" stroke-linecap="round" style="fill: none;"/></g><g fill="none" stroke-linejoin="round" stroke-linecap="round" id="strokes-72b9fc48-7eed-8043-8007-8f861642e209-ad6eafe9-0bf7-805a-8007-840d4924d999" class="strokes"><g class="stroke-shape"><path d="M539,1787.333251953125L539.041748046875,1787.333251953125" style="fill: none; stroke-width: 6; stroke: rgb(252, 255, 255); stroke-opacity: 1;"/></g></g></g></g><g id="shape-ad6eafe9-0bf7-805a-8007-8408b4a5a1d1"><g class="fills" id="fills-ad6eafe9-0bf7-805a-8007-8408b4a5a1d1"><rect rx="0" ry="0" x="41" y="1368" transform="matrix(1.000000, 0.000000, 0.000000, 1.000000, 0.000000, 0.000000)" width="125" height="125" style="fill: rgb(252, 255, 255); fill-opacity: 1;"/></g></g><g id="shape-ad6eafe9-0bf7-805a-8007-8408d8e9dd27"><g class="fills" id="fills-ad6eafe9-0bf7-805a-8007-8408d8e9dd27"><rect rx="0" ry="0" x="41" y="1578" transform="matrix(1.000000, 0.000000, 0.000000, 1.000000, 0.000000, 0.000000)" width="125" height="125" style="fill: rgb(252, 255, 255); fill-opacity: 1;"/></g></g><g id="shape-ad6eafe9-0bf7-805a-8007-840c9a45fab5" width="24" class="lucide lucide-message-square-text-icon lucide-message-square-text" height="24" rx="0" ry="0" style="fill: rgb(0, 0, 0);"><g id="shape-ad6eafe9-0bf7-805a-8007-840c9a46b75c" style="display: none;"><g class="fills" id="fills-ad6eafe9-0bf7-805a-8007-840c9a46b75c"><rect width="100" height="100" x="259" stroke-linejoin="round" transform="matrix(1.000000, 0.000000, 0.000000, 1.000000, 0.000000, 0.000000)" style="fill: none;" ry="0" fill="none" stroke-linecap="round" rx="0" y="1754"/></g><g fill="none" stroke-linejoin="round" stroke-linecap="round" id="strokes-72b9fc48-7eed-8043-8007-8f86164358bc-ad6eafe9-0bf7-805a-8007-840c9a46b75c" class="strokes"><g class="stroke-shape"><rect rx="0" ry="0" x="259" y="1754" transform="matrix(1.000000, 0.000000, 0.000000, 1.000000, 0.000000, 0.000000)" width="100" height="100" style="fill: none; stroke-width: 6; stroke: rgb(252, 255, 255); stroke-opacity: 1;"/></g></g></g><g id="shape-ad6eafe9-0bf7-805a-8007-840c9a47467b"><g class="fills" id="fills-ad6eafe9-0bf7-805a-8007-840c9a47467b"><path d="M350.6666259765625,1824.8333740234375C350.6666259765625,1829.435791015625,346.9356689453125,1833.1666259765625,342.3333740234375,1833.1666259765625L287.4499816894531,1833.1666259765625C285.24005126953125,1833.167236328125,283.12078857421875,1834.0455322265625,281.558349609375,1835.608642578125L272.38330078125,1844.783203125C271.53729248046875,1845.6290283203125,270.26495361328125,1845.88232421875,269.15960693359375,1845.4246826171875C268.05426025390625,1844.966796875,267.33349609375,1843.887939453125,267.3333435058594,1842.691650390625L267.3333435058594,1774.8333740234375C267.3333435058594,1770.230712890625,271.0643005371094,1766.5,275.6666564941406,1766.5L342.3333740234375,1766.5C346.9356689453125,1766.5,350.6666259765625,1770.230712890625,350.6666259765625,1774.8333740234375Z" fill="none" stroke-linejoin="round" stroke-linecap="round" style="fill: none;"/></g><g fill="none" stroke-linejoin="round" stroke-linecap="round" id="strokes-72b9fc48-7eed-8043-8007-8f8616438cf8-ad6eafe9-0bf7-805a-8007-840c9a47467b" class="strokes"><g class="stroke-shape"><path d="M350.6666259765625,1824.8333740234375C350.6666259765625,1829.435791015625,346.9356689453125,1833.1666259765625,342.3333740234375,1833.1666259765625L287.4499816894531,1833.1666259765625C285.24005126953125,1833.167236328125,283.12078857421875,1834.0455322265625,281.558349609375,1835.608642578125L272.38330078125,1844.783203125C271.53729248046875,1845.6290283203125,270.26495361328125,1845.88232421875,269.15960693359375,1845.4246826171875C268.05426025390625,1844.966796875,267.33349609375,1843.887939453125,267.3333435058594,1842.691650390625L267.3333435058594,1774.8333740234375C267.3333435058594,1770.230712890625,271.0643005371094,1766.5,275.6666564941406,1766.5L342.3333740234375,1766.5C346.9356689453125,1766.5,350.6666259765625,1770.230712890625,350.6666259765625,1774.8333740234375Z" style="fill: none; stroke-width: 6; stroke: rgb(252, 255, 255); stroke-opacity: 1;"/></g></g></g><g id="shape-ad6eafe9-0bf7-805a-8007-840c9a47467c"><g class="fills" id="fills-ad6eafe9-0bf7-805a-8007-840c9a47467c"><path d="M288.1666564941406,1799.8333740234375L329.8333740234375,1799.8333740234375" fill="none" stroke-linejoin="round" stroke-linecap="round" style="fill: none;"/></g><g fill="none" stroke-linejoin="round" stroke-linecap="round" id="strokes-72b9fc48-7eed-8043-8007-8f861643f1e0-ad6eafe9-0bf7-805a-8007-840c9a47467c" class="strokes"><g class="stroke-shape"><path d="M288.1666564941406,1799.8333740234375L329.8333740234375,1799.8333740234375" style="fill: none; stroke-width: 6; stroke: rgb(252, 255, 255); stroke-opacity: 1;"/></g></g></g><g id="shape-ad6eafe9-0bf7-805a-8007-840c9a47467d"><g class="fills" id="fills-ad6eafe9-0bf7-805a-8007-840c9a47467d"><path d="M288.1666564941406,1816.5L313.1666259765625,1816.5" fill="none" stroke-linejoin="round" stroke-linecap="round" style="fill: none;"/></g><g fill="none" stroke-linejoin="round" stroke-linecap="round" id="strokes-72b9fc48-7eed-8043-8007-8f86164431dc-ad6eafe9-0bf7-805a-8007-840c9a47467d" class="strokes"><g class="stroke-shape"><path d="M288.1666564941406,1816.5L313.1666259765625,1816.5" style="fill: none; stroke-width: 6; stroke: rgb(252, 255, 255); stroke-opacity: 1;"/></g></g></g><g id="shape-ad6eafe9-0bf7-805a-8007-840c9a47467e"><g class="fills" id="fills-ad6eafe9-0bf7-805a-8007-840c9a47467e"><path d="M288.1666564941406,1783.1666259765625L321.5,1783.1666259765625" fill="none" stroke-linejoin="round" stroke-linecap="round" style="fill: none;"/></g><g fill="none" stroke-linejoin="round" stroke-linecap="round" id="strokes-72b9fc48-7eed-8043-8007-8f86164431dd-ad6eafe9-0bf7-805a-8007-840c9a47467e" class="strokes"><g class="stroke-shape"><path d="M288.1666564941406,1783.1666259765625L321.5,1783.1666259765625" style="fill: none; stroke-width: 6; stroke: rgb(252, 255, 255); stroke-opacity: 1;"/></g></g></g></g><g id="shape-673ef92b-6075-80fe-8007-86817b8de29c" class="size-6" rx="0" ry="0" style="fill: rgb(0, 0, 0);"><g id="shape-673ef92b-6075-80fe-8007-86817b8e9cc2" style="display: none;"><g class="fills" id="fills-673ef92b-6075-80fe-8007-86817b8e9cc2"><rect width="100" height="100" x="709" transform="matrix(1.000000, 0.000000, 0.000000, 1.000000, 0.000000, 0.000000)" style="fill: none;" ry="0" fill="none" rx="0" y="1745"/></g><g fill="none" id="strokes-72b9fc48-7eed-8043-8007-8f8616446e10-673ef92b-6075-80fe-8007-86817b8e9cc2" class="strokes"><g class="outer-stroke-shape"><defs><mask id="outer-stroke-render-147-673ef92b-6075-80fe-8007-86817b8e9cc2-0" x="700.5147186257615" y="1736.5147186257614" width="116.97056274847714" height="116.97056274847714" maskUnits="userSpaceOnUse"><use href="#stroke-shape-render-147-673ef92b-6075-80fe-8007-86817b8e9cc2-0" style="fill: none; stroke: white; stroke-width: 12;"/><use href="#stroke-shape-render-147-673ef92b-6075-80fe-8007-86817b8e9cc2-0" style="fill: black; stroke: none;"/></mask><rect rx="0" ry="0" x="709" y="1745" transform="matrix(1.000000, 0.000000, 0.000000, 1.000000, 0.000000, 0.000000)" width="100" height="100" id="stroke-shape-render-147-673ef92b-6075-80fe-8007-86817b8e9cc2-0"/></defs><use href="#stroke-shape-render-147-673ef92b-6075-80fe-8007-86817b8e9cc2-0" mask="url(#outer-stroke-render-147-673ef92b-6075-80fe-8007-86817b8e9cc2-0)" style="fill: none; stroke-width: 12; stroke: rgb(252, 255, 255); stroke-opacity: 1;"/><use href="#stroke-shape-render-147-673ef92b-6075-80fe-8007-86817b8e9cc2-0" style="fill: none; stroke-width: 6; stroke: none; stroke-opacity: 1;"/></g></g></g><g id="shape-673ef92b-6075-80fe-8007-86817b8fc68d"><g class="fills" id="fills-673ef92b-6075-80fe-8007-86817b8fc68d"><path d="M752.0958862304688,1761.4163818359375C752.4707641601562,1759.1580810546875,754.42919921875,1757.5,756.7208251953125,1757.5L761.2750854492188,1757.5C763.5667114257812,1757.5,765.52490234375,1759.1580810546875,765.9000244140625,1761.4163818359375L766.5208129882812,1765.1416015625C766.8125,1766.9085693359375,768.1209716796875,1768.3250732421875,769.7709350585938,1769.016845703125C771.4290771484375,1769.699951171875,773.3333740234375,1769.6083984375,774.7915649414062,1768.566650390625L777.8624267578125,1766.3709716796875C779.7275390625,1765.037353515625,782.28369140625,1765.2489013671875,783.9041748046875,1766.8709716796875L787.125,1770.0955810546875C788.75,1771.716552734375,788.9583740234375,1774.27099609375,787.625,1776.1375732421875L785.42919921875,1779.2081298828125C784.3875732421875,1780.6668701171875,784.2957763671875,1782.566650390625,784.9833984375,1784.2247314453125C785.6708984375,1785.8792724609375,787.087646484375,1787.1834716796875,788.8583984375,1787.474853515625L792.5792236328125,1788.0999755859375C794.8416748046875,1788.474853515625,796.4959716796875,1790.428955078125,796.4959716796875,1792.7208251953125L796.4959716796875,1797.2791748046875C796.4959716796875,1799.571044921875,794.8416748046875,1801.529296875,792.5792236328125,1801.904052734375L788.8541259765625,1802.525146484375C787.087646484375,1802.8165283203125,785.6708984375,1804.1207275390625,784.9833984375,1805.7752685546875C784.2957763671875,1807.433349609375,784.3875732421875,1809.3331298828125,785.42919921875,1810.7918701171875L787.625,1813.866455078125C788.9583740234375,1815.72900390625,788.7457275390625,1818.283447265625,787.125,1819.908447265625L783.9000244140625,1823.1290283203125C782.280029296875,1824.74853515625,779.726806640625,1824.9600830078125,777.8624267578125,1823.6290283203125L774.7874755859375,1821.433349609375C773.3292846679688,1820.3916015625,771.4290771484375,1820.300048828125,769.7750244140625,1820.98779296875C768.1166381835938,1821.6749267578125,766.8165893554688,1823.0914306640625,766.5208129882812,1824.8583984375L765.9000244140625,1828.5836181640625C765.52490234375,1830.8419189453125,763.5667114257812,1832.5,761.2750854492188,1832.5L756.716796875,1832.5C754.4249267578125,1832.5,752.4707641601562,1830.8419189453125,752.091552734375,1828.5836181640625L751.474853515625,1824.8583984375C751.1790771484375,1823.0914306640625,749.875,1821.6749267578125,748.220947265625,1820.983154296875C746.5625610351562,1820.300048828125,744.66259765625,1820.3916015625,743.2041015625,1821.433349609375L740.1292114257812,1823.6290283203125C738.2666015625,1824.962646484375,735.7125244140625,1824.75,734.0874633789062,1823.1290283203125L730.8665771484375,1819.9044189453125C729.244873046875,1818.283447265625,729.0332641601562,1815.7275390625,730.3666381835938,1813.8624267578125L732.5626220703125,1810.7918701171875C733.6043090820312,1809.3331298828125,733.6958618164062,1807.433349609375,733.0125122070312,1805.7752685546875C732.3250732421875,1804.1207275390625,730.9042358398438,1802.8165283203125,729.1375122070312,1802.525146484375L725.41259765625,1801.9000244140625C723.154052734375,1801.525146484375,721.4959106445312,1799.56640625,721.4959106445312,1797.2791748046875L721.4959106445312,1792.7208251953125C721.4959106445312,1790.428955078125,723.154052734375,1788.470703125,725.41259765625,1788.095947265625L729.1375122070312,1787.474853515625C730.9042358398438,1787.1834716796875,732.3250732421875,1785.8792724609375,733.0125122070312,1784.2247314453125C733.6998901367188,1782.566650390625,733.6083374023438,1780.6668701171875,732.5626220703125,1779.2081298828125L730.3709716796875,1776.133544921875C729.03759765625,1774.2684326171875,729.2491455078125,1771.7120361328125,730.8709106445312,1770.091552734375L734.091552734375,1766.8709716796875C735.7122802734375,1765.2489013671875,738.2681274414062,1765.037353515625,740.13330078125,1766.3709716796875L743.2041015625,1768.566650390625C744.66259765625,1769.6083984375,746.566650390625,1769.699951171875,748.220947265625,1769.01220703125C749.875,1768.3250732421875,751.1790771484375,1766.9085693359375,751.4708251953125,1765.1416015625L752.0958862304688,1761.4163818359375Z" fill="none" stroke-linecap="round" stroke-linejoin="round" style="fill: none;"/></g><g fill="none" stroke-linecap="round" stroke-linejoin="round" id="strokes-72b9fc48-7eed-8043-8007-8f861644e546-673ef92b-6075-80fe-8007-86817b8fc68d" class="strokes"><g class="outer-stroke-shape"><defs><mask id="outer-stroke-render-148-673ef92b-6075-80fe-8007-86817b8fc68d-0" x="707.0105522610917" y="1743.0147186257614" width="103.97056473529878" height="103.97056274847714" maskUnits="userSpaceOnUse"><use href="#stroke-shape-render-148-673ef92b-6075-80fe-8007-86817b8fc68d-0" style="fill: none; stroke: white; stroke-width: 12;"/><use href="#stroke-shape-render-148-673ef92b-6075-80fe-8007-86817b8fc68d-0" style="fill: black; stroke: none;"/></mask><path d="M752.0958862304688,1761.4163818359375C752.4707641601562,1759.1580810546875,754.42919921875,1757.5,756.7208251953125,1757.5L761.2750854492188,1757.5C763.5667114257812,1757.5,765.52490234375,1759.1580810546875,765.9000244140625,1761.4163818359375L766.5208129882812,1765.1416015625C766.8125,1766.9085693359375,768.1209716796875,1768.3250732421875,769.7709350585938,1769.016845703125C771.4290771484375,1769.699951171875,773.3333740234375,1769.6083984375,774.7915649414062,1768.566650390625L777.8624267578125,1766.3709716796875C779.7275390625,1765.037353515625,782.28369140625,1765.2489013671875,783.9041748046875,1766.8709716796875L787.125,1770.0955810546875C788.75,1771.716552734375,788.9583740234375,1774.27099609375,787.625,1776.1375732421875L785.42919921875,1779.2081298828125C784.3875732421875,1780.6668701171875,784.2957763671875,1782.566650390625,784.9833984375,1784.2247314453125C785.6708984375,1785.8792724609375,787.087646484375,1787.1834716796875,788.8583984375,1787.474853515625L792.5792236328125,1788.0999755859375C794.8416748046875,1788.474853515625,796.4959716796875,1790.428955078125,796.4959716796875,1792.7208251953125L796.4959716796875,1797.2791748046875C796.4959716796875,1799.571044921875,794.8416748046875,1801.529296875,792.5792236328125,1801.904052734375L788.8541259765625,1802.525146484375C787.087646484375,1802.8165283203125,785.6708984375,1804.1207275390625,784.9833984375,1805.7752685546875C784.2957763671875,1807.433349609375,784.3875732421875,1809.3331298828125,785.42919921875,1810.7918701171875L787.625,1813.866455078125C788.9583740234375,1815.72900390625,788.7457275390625,1818.283447265625,787.125,1819.908447265625L783.9000244140625,1823.1290283203125C782.280029296875,1824.74853515625,779.726806640625,1824.9600830078125,777.8624267578125,1823.6290283203125L774.7874755859375,1821.433349609375C773.3292846679688,1820.3916015625,771.4290771484375,1820.300048828125,769.7750244140625,1820.98779296875C768.1166381835938,1821.6749267578125,766.8165893554688,1823.0914306640625,766.5208129882812,1824.8583984375L765.9000244140625,1828.5836181640625C765.52490234375,1830.8419189453125,763.5667114257812,1832.5,761.2750854492188,1832.5L756.716796875,1832.5C754.4249267578125,1832.5,752.4707641601562,1830.8419189453125,752.091552734375,1828.5836181640625L751.474853515625,1824.8583984375C751.1790771484375,1823.0914306640625,749.875,1821.6749267578125,748.220947265625,1820.983154296875C746.5625610351562,1820.300048828125,744.66259765625,1820.3916015625,743.2041015625,1821.433349609375L740.1292114257812,1823.6290283203125C738.2666015625,1824.962646484375,735.7125244140625,1824.75,734.0874633789062,1823.1290283203125L730.8665771484375,1819.9044189453125C729.244873046875,1818.283447265625,729.0332641601562,1815.7275390625,730.3666381835938,1813.8624267578125L732.5626220703125,1810.7918701171875C733.6043090820312,1809.3331298828125,733.6958618164062,1807.433349609375,733.0125122070312,1805.7752685546875C732.3250732421875,1804.1207275390625,730.9042358398438,1802.8165283203125,729.1375122070312,1802.525146484375L725.41259765625,1801.9000244140625C723.154052734375,1801.525146484375,721.4959106445312,1799.56640625,721.4959106445312,1797.2791748046875L721.4959106445312,1792.7208251953125C721.4959106445312,1790.428955078125,723.154052734375,1788.470703125,725.41259765625,1788.095947265625L729.1375122070312,1787.474853515625C730.9042358398438,1787.1834716796875,732.3250732421875,1785.8792724609375,733.0125122070312,1784.2247314453125C733.6998901367188,1782.566650390625,733.6083374023438,1780.6668701171875,732.5626220703125,1779.2081298828125L730.3709716796875,1776.133544921875C729.03759765625,1774.2684326171875,729.2491455078125,1771.7120361328125,730.8709106445312,1770.091552734375L734.091552734375,1766.8709716796875C735.7122802734375,1765.2489013671875,738.2681274414062,1765.037353515625,740.13330078125,1766.3709716796875L743.2041015625,1768.566650390625C744.66259765625,1769.6083984375,746.566650390625,1769.699951171875,748.220947265625,1769.01220703125C749.875,1768.3250732421875,751.1790771484375,1766.9085693359375,751.4708251953125,1765.1416015625L752.0958862304688,1761.4163818359375Z" id="stroke-shape-render-148-673ef92b-6075-80fe-8007-86817b8fc68d-0"/></defs><use href="#stroke-shape-render-148-673ef92b-6075-80fe-8007-86817b8fc68d-0" mask="url(#outer-stroke-render-148-673ef92b-6075-80fe-8007-86817b8fc68d-0)" style="fill: none; stroke-width: 12; stroke: rgb(252, 255, 255); stroke-opacity: 1;"/><use href="#stroke-shape-render-148-673ef92b-6075-80fe-8007-86817b8fc68d-0" style="fill: none; stroke-width: 6; stroke: none; stroke-opacity: 1;"/></g></g></g><g id="shape-673ef92b-6075-80fe-8007-86817b90166c"><g class="fills" id="fills-673ef92b-6075-80fe-8007-86817b90166c"><path d="M771.5,1795C771.5,1801.903564453125,765.903564453125,1807.5,759,1807.5C752.096435546875,1807.5,746.5,1801.903564453125,746.5,1795C746.5,1788.096435546875,752.096435546875,1782.5,759,1782.5C765.903564453125,1782.5,771.5,1788.096435546875,771.5,1795Z" fill="none" stroke-linecap="round" stroke-linejoin="round" style="fill: none;"/></g><g fill="none" stroke-linecap="round" stroke-linejoin="round" id="strokes-72b9fc48-7eed-8043-8007-8f86164500ec-673ef92b-6075-80fe-8007-86817b90166c" class="strokes"><g class="outer-stroke-shape"><defs><mask id="outer-stroke-render-149-673ef92b-6075-80fe-8007-86817b90166c-0" x="732.0147186257615" y="1768.0147186257614" width="53.970562748477136" height="53.970562748477136" maskUnits="userSpaceOnUse"><use href="#stroke-shape-render-149-673ef92b-6075-80fe-8007-86817b90166c-0" style="fill: none; stroke: white; stroke-width: 12;"/><use href="#stroke-shape-render-149-673ef92b-6075-80fe-8007-86817b90166c-0" style="fill: black; stroke: none;"/></mask><path d="M771.5,1795C771.5,1801.903564453125,765.903564453125,1807.5,759,1807.5C752.096435546875,1807.5,746.5,1801.903564453125,746.5,1795C746.5,1788.096435546875,752.096435546875,1782.5,759,1782.5C765.903564453125,1782.5,771.5,1788.096435546875,771.5,1795Z" id="stroke-shape-render-149-673ef92b-6075-80fe-8007-86817b90166c-0"/></defs><use href="#stroke-shape-render-149-673ef92b-6075-80fe-8007-86817b90166c-0" mask="url(#outer-stroke-render-149-673ef92b-6075-80fe-8007-86817b90166c-0)" style="fill: none; stroke-width: 12; stroke: rgb(252, 255, 255); stroke-opacity: 1;"/><use href="#stroke-shape-render-149-673ef92b-6075-80fe-8007-86817b90166c-0" style="fill: none; stroke-width: 6; stroke: none; stroke-opacity: 1;"/></g></g></g></g><g id="shape-bc2e7133-bce3-8014-8007-8d0faea81d06"><g class="fills" id="fills-bc2e7133-bce3-8014-8007-8d0faea81d06"><rect rx="0" ry="0" x="40" y="257" transform="matrix(1.000000, 0.000000, 0.000000, 1.000000, 0.000000, 0.000000)" width="998.9999999999995" height="125" style="fill: rgb(252, 255, 255); fill-opacity: 1;"/></g></g><g id="shape-bc2e7133-bce3-8014-8007-8d0faea81d07"><g transform="matrix(1.000000, 0.000000, 0.000000, 1.000000, 0.000000, 0.000000)" class="text-container" x="79" y="291" width="161" height="58" rx="0" ry="0"><defs><pattern patternUnits="objectBoundingBox" width="160.8125" height="61" id="fill-0-render-151-0"><g><rect width="160.8125" height="61" style="fill: rgb(45, 49, 50); fill-opacity: 1;"/></g></pattern></defs><g class="fills" id="fills-bc2e7133-bce3-8014-8007-8d0faea81d07"><text x="79" y="350" dominant-baseline="ideographic" textLength="160.8125" lengthAdjust="spacingAndGlyphs" style="text-transform: none; font-family: &quot;Space Grotesk&quot;; letter-spacing: normal; font-style: normal; font-weight: 400; white-space: pre; font-size: 48px; text-decoration: none; direction: ltr; fill: rgb(45, 49, 50); fill-opacity: 1;">Search</text></g></g></g></g></g></g></g></g></g></svg>