<svg width="1080" xmlns="http://www.w3.org/2000/svg" height="1920" id="screenshot-673ef92b-6075-80fe-8007-8682425192e3" viewBox="0 0 1080 1920" xmlns:xlink="http://www.w3.org/1999/xlink" fill="none" version="1.1"><style>/* vietnamese */
@font-face {
  font-family: 'Vujahday Script';
  font-style: normal;
  font-weight: 400;
  font-display: block;
  src: url(http://penpot-frontend:8080/internal/gfonts/font/vujahdayscript/v10/RWmQoKGA8fEkrIPtSZ3_J7er2dUSBEFuMlY.woff2) format('woff2');
  unicode-range: U+0102-0103, U+0110-0111, U+0128-0129, U+0168-0169, U+01A0-01A1, U+01AF-01B0, U+0300-0301, U+0303-0304, U+0308-0309, U+0323, U+0329, U+1EA0-1EF9, U+20AB;
}
/* latin-ext */
@font-face {
  font-family: 'Vujahday Script';
  font-style: normal;
  font-weight: 400;
  font-display: block;
  src: url(http://penpot-frontend:8080/internal/gfonts/font/vujahdayscript/v10/RWmQoKGA8fEkrIPtSZ3_J7er2dUSBUFuMlY.woff2) format('woff2');
  unicode-range: U+0100-02BA, U+02BD-02C5, U+02C7-02CC, U+02CE-02D7, U+02DD-02FF, U+0304, U+0308, U+0329, U+1D00-1DBF, U+1E00-1E9F, U+1EF2-1EFF, U+2020, U+20A0-20AB, U+20AD-20C0, U+2113, U+2C60-2C7F, U+A720-A7FF;
}
/* latin */
@font-face {
  font-family: 'Vujahday Script';
  font-style: normal;
  font-weight: 400;
  font-display: block;
  src: url(http://penpot-frontend:8080/internal/gfonts/font/vujahdayscript/v10/RWmQoKGA8fEkrIPtSZ3_J7er2dUSC0Fu.woff2) format('woff2');
  unicode-range: U+0000-00FF, U+0131, U+0152-0153, U+02BB-02BC, U+02C6, U+02DA, U+02DC, U+0304, U+0308, U+0329, U+2000-206F, U+20AC, U+2122, U+2191, U+2193, U+2212, U+2215, U+FEFF, U+FFFD;
}

/* cyrillic-ext */
@font-face {
  font-family: 'Tiny5';
  font-style: normal;
  font-weight: 400;
  font-display: block;
  src: url(http://penpot-frontend:8080/internal/gfonts/font/tiny5/v3/KFOpCnmCvdGT7iw0xUl3Ag.woff2) format('woff2');
  unicode-range: U+0460-052F, U+1C80-1C8A, U+20B4, U+2DE0-2DFF, U+A640-A69F, U+FE2E-FE2F;
}
/* cyrillic */
@font-face {
  font-family: 'Tiny5';
  font-style: normal;
  font-weight: 400;
  font-display: block;
  src: url(http://penpot-frontend:8080/internal/gfonts/font/tiny5/v3/KFOpCnmCvdGT7iw9xUl3Ag.woff2) format('woff2');
  unicode-range: U+0301, U+0400-045F, U+0490-0491, U+04B0-04B1, U+2116;
}
/* greek */
@font-face {
  font-family: 'Tiny5';
  font-style: normal;
  font-weight: 400;
  font-display: block;
  src: url(http://penpot-frontend:8080/internal/gfonts/font/tiny5/v3/KFOpCnmCvdGT7iw6xUl3Ag.woff2) format('woff2');
  unicode-range: U+0370-0377, U+037A-037F, U+0384-038A, U+038C, U+038E-03A1, U+03A3-03FF;
}
/* latin-ext */
@font-face {
  font-family: 'Tiny5';
  font-style: normal;
  font-weight: 400;
  font-display: block;
  src: url(http://penpot-frontend:8080/internal/gfonts/font/tiny5/v3/KFOpCnmCvdGT7iw3xUl3Ag.woff2) format('woff2');
  unicode-range: U+0100-02BA, U+02BD-02C5, U+02C7-02CC, U+02CE-02D7, U+02DD-02FF, U+0304, U+0308, U+0329, U+1D00-1DBF, U+1E00-1E9F, U+1EF2-1EFF, U+2020, U+20A0-20AB, U+20AD-20C0, U+2113, U+2C60-2C7F, U+A720-A7FF;
}
/* latin */
@font-face {
  font-family: 'Tiny5';
  font-style: normal;
  font-weight: 400;
  font-display: block;
  src: url(http://penpot-frontend:8080/internal/gfonts/font/tiny5/v3/KFOpCnmCvdGT7iw5xUk.woff2) format('woff2');
  unicode-range: U+0000-00FF, U+0131, U+0152-0153, U+02BB-02BC, U+02C6, U+02DA, U+02DC, U+0304, U+0308, U+0329, U+2000-206F, U+20AC, U+2122, U+2191, U+2193, U+2212, U+2215, U+FEFF, U+FFFD;
}

/* vietnamese */
@font-face {
  font-family: 'Space Grotesk';
  font-style: normal;
  font-weight: 400;
  font-display: block;
  src: url(http://penpot-frontend:8080/internal/gfonts/font/spacegrotesk/v22/V8mQoQDjQSkFtoMM3T6r8E7mF71Q-gOoraIAEj7oUXsrPMBTTA.woff2) format('woff2');
  unicode-range: U+0102-0103, U+0110-0111, U+0128-0129, U+0168-0169, U+01A0-01A1, U+01AF-01B0, U+0300-0301, U+0303-0304, U+0308-0309, U+0323, U+0329, U+1EA0-1EF9, U+20AB;
}
/* latin-ext */
@font-face {
  font-family: 'Space Grotesk';
  font-style: normal;
  font-weight: 400;
  font-display: block;
  src: url(http://penpot-frontend:8080/internal/gfonts/font/spacegrotesk/v22/V8mQoQDjQSkFtoMM3T6r8E7mF71Q-gOoraIAEj7oUXsqPMBTTA.woff2) format('woff2');
  unicode-range: U+0100-02BA, U+02BD-02C5, U+02C7-02CC, U+02CE-02D7, U+02DD-02FF, U+0304, U+0308, U+0329, U+1D00-1DBF, U+1E00-1E9F, U+1EF2-1EFF, U+2020, U+20A0-20AB, U+20AD-20C0, U+2113, U+2C60-2C7F, U+A720-A7FF;
}
/* latin */
@font-face {
  font-family: 'Space Grotesk';
  font-style: normal;
  font-weight: 400;
  font-display: block;
  src: url(http://penpot-frontend:8080/internal/gfonts/font/spacegrotesk/v22/V8mQoQDjQSkFtoMM3T6r8E7mF71Q-gOoraIAEj7oUXskPMA.woff2) format('woff2');
  unicode-range: U+0000-00FF, U+0131, U+0152-0153, U+02BB-02BC, U+02C6, U+02DA, U+02DC, U+0304, U+0308, U+0329, U+2000-206F, U+20AC, U+2122, U+2191, U+2193, U+2212, U+2215, U+FEFF, U+FFFD;
}
</style><g id="shape-673ef92b-6075-80fe-8007-8682425192e3"><defs><clipPath id="frame-clip-673ef92b-6075-80fe-8007-8682425192e3-render-33" class="frame-clip frame-clip-def"><rect rx="0" ry="0" x="0" y="0" width="1080" height="1920" transform="matrix(1.000000, 0.000000, 0.000000, 1.000000, 0.000000, 0.000000)"/></clipPath></defs><g class="frame-container-wrapper"><g class="frame-container-blur"><g class="frame-container-shadows"><g clip-path="url(#frame-clip-673ef92b-6075-80fe-8007-8682425192e3-render-33)" fill="none"><g class="fills" id="fills-673ef92b-6075-80fe-8007-8682425192e3"><rect width="1080" height="1920" class="frame-background" x="0" transform="matrix(1.000000, 0.000000, 0.000000, 1.000000, 0.000000, 0.000000)" style="fill: rgb(45, 49, 50); fill-opacity: 1;" ry="0" rx="0" y="0"/></g><g class="frame-children"><g id="shape-673ef92b-6075-80fe-8007-86865091299c" width="1080" height="1920" rx="0" ry="0" style="fill: rgb(0, 0, 0);"><g id="shape-673ef92b-6075-80fe-8007-868650920bbd" style="display: none;"><g class="fills" id="fills-673ef92b-6075-80fe-8007-868650920bbd"><rect width="1079.9999999999995" height="1920" x="-4.547473508864641e-13" transform="matrix(1.000000, 0.000000, 0.000000, 1.000000, 0.000000, 0.000000)" style="fill: none;" ry="0" fill="none" rx="0" y="-9.947598300641403e-14"/></g></g><g id="shape-673ef92b-6075-80fe-8007-86865092719a"><g class="fills" id="fills-673ef92b-6075-80fe-8007-86865092719a"><rect rx="0" ry="0" x="-4.547473508864641e-13" y="-9.947598300641403e-14" transform="matrix(1.000000, 0.000000, 0.000000, 1.000000, 0.000000, 0.000000)" width="1079.9999999999995" height="1920" style="fill: rgb(45, 49, 50);"/></g></g><g id="shape-673ef92b-6075-80fe-8007-86865092719b" rx="0" ry="0" style="fill: rgb(0, 0, 0);"><g id="shape-673ef92b-6075-80fe-8007-86865092926e"><g class="fills" id="fills-673ef92b-6075-80fe-8007-86865092926e"><path d="M1080,972C976.699951171875,963.800048828125,873.39990234375,955.5999755859375,779.60009765625,924.4000244140625C685.89990234375,893.2999877929688,601.60009765625,839.2999877929688,513.39990234375,779.9000244140625C425.10009765625,720.5,332.89990234375,655.7999877929688,301.699951171875,565.4000244140625C270.5,475.0999755859375,300.39990234375,359,278.300048828125,260.5C256.10009765625,162,182.10009765625,81,108,1.4210854715202004e-14L1080,1.4210854715202004e-14Z" style="fill: rgb(58, 62, 63);"/></g></g><g id="shape-673ef92b-6075-80fe-8007-86865092926f"><g class="fills" id="fills-673ef92b-6075-80fe-8007-86865092926f"><path d="M1080,850.5C989.60009765625,843.2999877929688,899.199951171875,836.0999755859375,817.199951171875,808.9000244140625C735.10009765625,781.5999755859375,661.39990234375,734.4000244140625,584.199951171875,682.4000244140625C507,630.5,426.300048828125,573.7999877929688,399,494.79998779296875C371.699951171875,415.70001220703125,397.800048828125,314.1000061035156,378.5,227.89999389648438C359.10009765625,141.6999969482422,294.300048828125,70.89999389648438,229.5,1.4210854715202004e-14L1080,1.4210854715202004e-14Z" style="fill: rgb(84, 88, 89);"/></g></g><g id="shape-673ef92b-6075-80fe-8007-86865092d0d2"><g class="fills" id="fills-673ef92b-6075-80fe-8007-86865092d0d2"><path d="M1080,729C1002.5,722.7999877929688,925.10009765625,716.7000122070312,854.699951171875,693.2999877929688C784.39990234375,670,721.199951171875,629.4000244140625,655,584.9000244140625C588.89990234375,540.4000244140625,519.699951171875,491.89996337890625,496.300048828125,424.1000061035156C472.89990234375,356.29998779296875,495.300048828125,269.29998779296875,478.699951171875,195.39999389648438C462.10009765625,121.5,406.60009765625,60.69999694824219,351,1.4210854715202004e-14L1080,1.4210854715202004e-14Z" style="fill: rgb(112, 116, 117);"/></g></g><g id="shape-673ef92b-6075-80fe-8007-86865092d0d3"><g class="fills" id="fills-673ef92b-6075-80fe-8007-86865092d0d3"><path d="M1080,607.5C1015.39990234375,602.4000244140625,950.89990234375,597.2000122070312,892.300048828125,577.7999877929688C833.699951171875,558.2999877929688,781,524.5,725.89990234375,487.39996337890625C670.699951171875,450.29998779296875,613.10009765625,409.8999938964844,593.60009765625,353.3999938964844C574.10009765625,296.8999938964844,592.699951171875,224.39999389648438,578.89990234375,162.8000030517578C565.10009765625,101.19999694824219,518.800048828125,50.600006103515625,472.5,1.4210854715202004e-14L1080,1.4210854715202004e-14Z" style="fill: rgb(141, 145, 145);"/></g></g><g id="shape-673ef92b-6075-80fe-8007-868650932db0"><g class="fills" id="fills-673ef92b-6075-80fe-8007-868650932db0"><path d="M1080,486C1028.39990234375,481.89996337890625,976.699951171875,477.79998779296875,929.800048828125,462.20001220703125C882.89990234375,446.5999755859375,840.800048828125,419.6000061035156,796.699951171875,389.8999938964844C752.60009765625,360.29998779296875,706.5,327.8999938964844,690.89990234375,282.70001220703125C675.300048828125,237.5,690.199951171875,179.5,679.10009765625,130.3000030517578C668.10009765625,81,631,40.5,594,1.4210854715202004e-14L1080,1.4210854715202004e-14Z" style="fill: rgb(172, 175, 176);"/></g></g><g id="shape-673ef92b-6075-80fe-8007-868650932db1"><g class="fills" id="fills-673ef92b-6075-80fe-8007-868650932db1"><path d="M1080,364.5C1041.300048828125,361.3999938964844,1002.5,358.29998779296875,967.39990234375,346.70001220703125C932.199951171875,335,900.60009765625,314.70001220703125,867.5,292.5C834.39990234375,270.20001220703125,799.800048828125,245.89999389648438,788.10009765625,212C776.5,178.1999969482422,787.60009765625,134.60000610351562,779.300048828125,97.69999694824219C771.10009765625,60.69999694824219,743.300048828125,30.399993896484375,715.5,1.4210854715202004e-14L1080,1.4210854715202004e-14Z" style="fill: rgb(203, 206, 207);"/></g></g><g id="shape-673ef92b-6075-80fe-8007-868650932db2"><g class="fills" id="fills-673ef92b-6075-80fe-8007-868650932db2"><path d="M1080,243C1054.199951171875,240.89999389648438,1028.39990234375,238.89999389648438,1004.89990234375,231.10000610351562C981.5,223.29998779296875,960.39990234375,209.79998779296875,938.300048828125,195C916.300048828125,180.10000610351562,893.199951171875,164,885.39990234375,141.39999389648438C877.60009765625,118.80000305175781,885.10009765625,89.80000305175781,879.60009765625,65.09999084472656C874,40.5,855.5,20.199996948242188,837,1.4210854715202004e-14L1080,1.4210854715202004e-14Z" style="fill: rgb(235, 239, 239);"/></g></g><g id="shape-673ef92b-6075-80fe-8007-8686509341d4"><g class="fills" id="fills-673ef92b-6075-80fe-8007-8686509341d4"><path d="M1080,121.5C1067.10009765625,120.5,1054.199951171875,119.39999389648438,1042.5,115.59999084472656C1030.699951171875,111.69999694824219,1020.199951171875,104.89999389648438,1009.199951171875,97.5C998.10009765625,90.09999084472656,986.60009765625,82,982.699951171875,70.69999694824219C978.800048828125,59.399993896484375,982.5,44.899993896484375,979.800048828125,32.600006103515625C977,20.199996948242188,967.800048828125,10.100006103515625,958.5,1.4210854715202004e-14L1080,1.4210854715202004e-14Z" style="fill: rgb(252, 255, 255);"/></g></g></g><g id="shape-673ef92b-6075-80fe-8007-8686509341d5" rx="0" ry="0" style="fill: rgb(0, 0, 0);"><g id="shape-673ef92b-6075-80fe-8007-868650938269"><g class="fills" id="fills-673ef92b-6075-80fe-8007-868650938269"><path d="M0,948C82.89990234375,1022.300048828125,165.800048828125,1096.5999755859375,259,1123C352.10009765625,1149.4000244140625,455.60009765625,1127.9000244140625,556.60009765625,1153.9000244140625C657.60009765625,1179.800048828125,756.199951171875,1253.199951171875,786.39990234375,1348.699951171875C816.60009765625,1444.199951171875,778.39990234375,1561.800048828125,797.89990234375,1660.699951171875C817.5,1759.5999755859375,894.699951171875,1839.800048828125,972,1920L0,1920Z" style="fill: rgb(58, 62, 63);"/></g></g><g id="shape-673ef92b-6075-80fe-8007-86865093826a"><g class="fills" id="fills-673ef92b-6075-80fe-8007-86865093826a"><path d="M0,1069.5C72.5,1134.5,145.10009765625,1199.5,226.60009765625,1222.5999755859375C308.10009765625,1245.699951171875,398.699951171875,1226.9000244140625,487.10009765625,1249.5999755859375C575.39990234375,1272.300048828125,661.699951171875,1336.5,688.10009765625,1420.0999755859375C714.5,1503.699951171875,681.10009765625,1606.5999755859375,698.199951171875,1693.0999755859375C715.300048828125,1779.699951171875,782.89990234375,1849.800048828125,850.5,1920L0,1920Z" style="fill: rgb(84, 88, 89);"/></g></g><g id="shape-673ef92b-6075-80fe-8007-86865093826b"><g class="fills" id="fills-673ef92b-6075-80fe-8007-86865093826b"><path d="M0,1191C62.199951171875,1246.699951171875,124.300048828125,1302.5,194.199951171875,1322.300048828125C264.10009765625,1342.0999755859375,341.699951171875,1325.9000244140625,417.5,1345.4000244140625C493.199951171875,1364.800048828125,567.10009765625,1419.9000244140625,589.800048828125,1491.5C612.39990234375,1563.0999755859375,583.800048828125,1651.4000244140625,598.5,1725.5999755859375C613.10009765625,1799.699951171875,671.10009765625,1859.9000244140625,729,1920L0,1920Z" style="fill: rgb(112, 116, 117);"/></g></g><g id="shape-673ef92b-6075-80fe-8007-86865093f1ed"><g class="fills" id="fills-673ef92b-6075-80fe-8007-86865093f1ed"><path d="M0,1312.5C51.800048828125,1358.9000244140625,103.60009765625,1405.4000244140625,161.800048828125,1421.9000244140625C220.10009765625,1438.4000244140625,284.800048828125,1425,347.89990234375,1441.199951171875C411,1457.4000244140625,472.60009765625,1503.199951171875,491.5,1562.9000244140625C510.300048828125,1622.5999755859375,486.5,1696.0999755859375,498.699951171875,1758C510.89990234375,1819.800048828125,559.199951171875,1869.9000244140625,607.5,1920L0,1920Z" style="fill: rgb(141, 145, 145);"/></g></g><g id="shape-673ef92b-6075-80fe-8007-86865093f1ee"><g class="fills" id="fills-673ef92b-6075-80fe-8007-86865093f1ee"><path d="M0,1434C41.4000244140625,1471.199951171875,82.89990234375,1508.300048828125,129.5,1521.5C176.10009765625,1534.699951171875,227.800048828125,1524,278.300048828125,1536.9000244140625C328.800048828125,1549.9000244140625,378.10009765625,1586.5999755859375,393.199951171875,1634.300048828125C408.300048828125,1682.0999755859375,389.199951171875,1740.9000244140625,399,1790.4000244140625C408.699951171875,1839.800048828125,447.39990234375,1879.9000244140625,486,1920L0,1920Z" style="fill: rgb(172, 175, 176);"/></g></g><g id="shape-673ef92b-6075-80fe-8007-86865093f1ef"><g class="fills" id="fills-673ef92b-6075-80fe-8007-86865093f1ef"><path d="M0,1555.5C31.0999755859375,1583.4000244140625,62.199951171875,1611.199951171875,97.10009765625,1621.0999755859375C132.10009765625,1631,170.89990234375,1623,208.699951171875,1632.699951171875C246.60009765625,1642.4000244140625,283.60009765625,1669.9000244140625,294.89990234375,1705.800048828125C306.199951171875,1741.5999755859375,291.89990234375,1785.699951171875,299.199951171875,1822.800048828125C306.60009765625,1859.9000244140625,335.5,1889.9000244140625,364.5,1920L0,1920Z" style="fill: rgb(203, 206, 207);"/></g></g><g id="shape-673ef92b-6075-80fe-8007-86865094057b"><g class="fills" id="fills-673ef92b-6075-80fe-8007-86865094057b"><path d="M0,1677C20.699951171875,1695.5999755859375,41.4000244140625,1714.199951171875,64.699951171875,1720.800048828125C88,1727.4000244140625,113.89990234375,1722,139.199951171875,1728.5C164.39990234375,1734.9000244140625,189,1753.300048828125,196.60009765625,1777.199951171875C204.10009765625,1801,194.60009765625,1830.5,199.5,1855.199951171875C204.39990234375,1879.9000244140625,223.699951171875,1900,243,1920L0,1920Z" style="fill: rgb(235, 239, 239);"/></g></g><g id="shape-673ef92b-6075-80fe-8007-86865094057c"><g class="fills" id="fills-673ef92b-6075-80fe-8007-86865094057c"><path d="M0,1798.5C10.4000244140625,1807.800048828125,20.699951171875,1817.0999755859375,32.4000244140625,1820.4000244140625C44,1823.699951171875,57,1821,69.60009765625,1824.199951171875C82.199951171875,1827.5,94.5,1836.5999755859375,98.300048828125,1848.5999755859375C102.10009765625,1860.5,97.300048828125,1875.199951171875,99.699951171875,1887.5999755859375C102.199951171875,1900,111.800048828125,1910,121.5,1920L0,1920Z" style="fill: rgb(252, 255, 255);"/></g></g></g></g><g id="shape-673ef92b-6075-80fe-8007-8683034ac85f"><g class="fills" id="fills-673ef92b-6075-80fe-8007-8683034ac85f"><rect rx="0" ry="0" x="130" y="1639" transform="matrix(1.000000, 0.000000, 0.000000, 1.000000, 0.000000, 0.000000)" width="337.99999999999955" height="125" style="fill: rgb(45, 49, 50); fill-opacity: 1;"/></g><g id="strokes-72b9fc48-7eed-8043-8007-8f86162f398e-673ef92b-6075-80fe-8007-8683034ac85f" class="strokes"><g class="outer-stroke-shape"><defs><mask id="outer-stroke-render-55-673ef92b-6075-80fe-8007-8683034ac85f-0" x="115.85786437626905" y="1624.857864376269" width="366.28427124746145" height="153.2842712474619" maskUnits="userSpaceOnUse"><use href="#stroke-shape-render-55-673ef92b-6075-80fe-8007-8683034ac85f-0" style="fill: none; stroke: white; stroke-width: 20;"/><use href="#stroke-shape-render-55-673ef92b-6075-80fe-8007-8683034ac85f-0" style="fill: black; stroke: none;"/></mask><rect rx="0" ry="0" x="130" y="1639" transform="matrix(1.000000, 0.000000, 0.000000, 1.000000, 0.000000, 0.000000)" width="337.99999999999955" height="125" id="stroke-shape-render-55-673ef92b-6075-80fe-8007-8683034ac85f-0"/></defs><use href="#stroke-shape-render-55-673ef92b-6075-80fe-8007-8683034ac85f-0" mask="url(#outer-stroke-render-55-673ef92b-6075-80fe-8007-8683034ac85f-0)" style="fill: none; stroke-width: 20; stroke: rgb(252, 255, 255); stroke-opacity: 1;"/><use href="#stroke-shape-render-55-673ef92b-6075-80fe-8007-8683034ac85f-0" style="fill: none; stroke-width: 10; stroke: none; stroke-opacity: 1;"/></g></g></g><g id="shape-673ef92b-6075-80fe-8007-8685312533a5"><g class="fills" id="fills-673ef92b-6075-80fe-8007-8685312533a5"><rect rx="0" ry="0" x="611" y="1639" transform="matrix(1.000000, 0.000000, 0.000000, 1.000000, 0.000000, 0.000000)" width="338.00000000000045" height="125" style="fill: rgb(252, 255, 255); fill-opacity: 1;"/></g><g id="strokes-72b9fc48-7eed-8043-8007-8f86162f50c8-673ef92b-6075-80fe-8007-8685312533a5" class="strokes"><g class="outer-stroke-shape"><defs><mask id="outer-stroke-render-56-673ef92b-6075-80fe-8007-8685312533a5-0" x="596.857864376269" y="1624.857864376269" width="366.28427124746236" height="153.2842712474619" maskUnits="userSpaceOnUse"><use href="#stroke-shape-render-56-673ef92b-6075-80fe-8007-8685312533a5-0" style="fill: none; stroke: white; stroke-width: 20;"/><use href="#stroke-shape-render-56-673ef92b-6075-80fe-8007-8685312533a5-0" style="fill: black; stroke: none;"/></mask><rect rx="0" ry="0" x="611" y="1639" transform="matrix(1.000000, 0.000000, 0.000000, 1.000000, 0.000000, 0.000000)" width="338.00000000000045" height="125" id="stroke-shape-render-56-673ef92b-6075-80fe-8007-8685312533a5-0"/></defs><use href="#stroke-shape-render-56-673ef92b-6075-80fe-8007-8685312533a5-0" mask="url(#outer-stroke-render-56-673ef92b-6075-80fe-8007-8685312533a5-0)" style="fill: none; stroke-width: 20; stroke: rgb(45, 49, 50); stroke-opacity: 1;"/><use href="#stroke-shape-render-56-673ef92b-6075-80fe-8007-8685312533a5-0" style="fill: none; stroke-width: 10; stroke: none; stroke-opacity: 1;"/></g></g></g><g id="shape-673ef92b-6075-80fe-8007-8683427dfb58"><g transform="matrix(1.000000, 0.000000, 0.000000, 1.000000, 0.000000, 0.000000)" class="text-container" x="94" y="87.00000000000001" width="624" height="662" rx="0" ry="0"><defs><pattern patternUnits="objectBoundingBox" width="604.109375" height="662" id="fill-0-render-57-0"><g><rect width="604.109375" height="662" style="fill: rgb(252, 255, 255); fill-opacity: 1;"/></g></pattern><pattern patternUnits="objectBoundingBox" width="604.109375" height="662" id="fill-1-render-57-0"><g><rect width="604.109375" height="662" style="fill: rgb(252, 255, 255); fill-opacity: 1;"/></g></pattern><pattern patternUnits="objectBoundingBox" width="604.109375" height="662" id="fill-2-render-57-0"><g><rect width="604.109375" height="662" style="fill: rgb(252, 255, 255); fill-opacity: 1;"/></g></pattern><pattern patternUnits="objectBoundingBox" width="604.109375" height="662" id="fill-3-render-57-0"><g><rect width="604.109375" height="662" style="fill: rgb(252, 255, 255); fill-opacity: 1;"/></g></pattern><pattern patternUnits="objectBoundingBox" width="604.109375" height="662" id="fill-4-render-57-0"><g><rect width="604.109375" height="662" style="fill: rgb(252, 255, 255); fill-opacity: 1;"/></g></pattern></defs><g class="fills" id="fills-673ef92b-6075-80fe-8007-8683427dfb58"><text x="94" y="310" dominant-baseline="ideographic" textLength="157.25" lengthAdjust="spacingAndGlyphs" style="text-transform: none; font-family: &quot;Space Grotesk&quot;; letter-spacing: normal; font-style: normal; font-weight: 400; white-space: pre; font-size: 180px; text-decoration: none; direction: ltr; fill: rgb(252, 255, 255); fill-opacity: 1;">A </text></g><defs><pattern patternUnits="objectBoundingBox" width="604.109375" height="662" id="fill-0-render-57-1"><g><rect width="604.109375" height="662" style="fill: rgb(252, 255, 255); fill-opacity: 1;"/></g></pattern><pattern patternUnits="objectBoundingBox" width="604.109375" height="662" id="fill-1-render-57-1"><g><rect width="604.109375" height="662" style="fill: rgb(252, 255, 255); fill-opacity: 1;"/></g></pattern><pattern patternUnits="objectBoundingBox" width="604.109375" height="662" id="fill-2-render-57-1"><g><rect width="604.109375" height="662" style="fill: rgb(252, 255, 255); fill-opacity: 1;"/></g></pattern><pattern patternUnits="objectBoundingBox" width="604.109375" height="662" id="fill-3-render-57-1"><g><rect width="604.109375" height="662" style="fill: rgb(252, 255, 255); fill-opacity: 1;"/></g></pattern><pattern patternUnits="objectBoundingBox" width="604.109375" height="662" id="fill-4-render-57-1"><g><rect width="604.109375" height="662" style="fill: rgb(252, 255, 255); fill-opacity: 1;"/></g></pattern></defs><g class="fills" id="fills-673ef92b-6075-80fe-8007-8683427dfb58"><text x="251.25" y="331" dominant-baseline="ideographic" textLength="305.828125" lengthAdjust="spacingAndGlyphs" style="text-transform: none; font-family: &quot;Vujahday Script&quot;; letter-spacing: normal; font-style: normal; font-weight: 400; white-space: pre; font-size: 180px; text-decoration: none; direction: ltr; fill: rgb(252, 255, 255); fill-opacity: 1;">New</text></g><defs><pattern patternUnits="objectBoundingBox" width="604.109375" height="662" id="fill-0-render-57-2"><g><rect width="604.109375" height="662" style="fill: rgb(252, 255, 255); fill-opacity: 1;"/></g></pattern><pattern patternUnits="objectBoundingBox" width="604.109375" height="662" id="fill-1-render-57-2"><g><rect width="604.109375" height="662" style="fill: rgb(252, 255, 255); fill-opacity: 1;"/></g></pattern><pattern patternUnits="objectBoundingBox" width="604.109375" height="662" id="fill-2-render-57-2"><g><rect width="604.109375" height="662" style="fill: rgb(252, 255, 255); fill-opacity: 1;"/></g></pattern><pattern patternUnits="objectBoundingBox" width="604.109375" height="662" id="fill-3-render-57-2"><g><rect width="604.109375" height="662" style="fill: rgb(252, 255, 255); fill-opacity: 1;"/></g></pattern><pattern patternUnits="objectBoundingBox" width="604.109375" height="662" id="fill-4-render-57-2"><g><rect width="604.109375" height="662" style="fill: rgb(252, 255, 255); fill-opacity: 1;"/></g></pattern></defs><g class="fills" id="fills-673ef92b-6075-80fe-8007-8683427dfb58"><text x="557.078125" y="310" dominant-baseline="ideographic" textLength="44.9375" lengthAdjust="spacingAndGlyphs" style="text-transform: none; font-family: &quot;Space Grotesk&quot;; letter-spacing: normal; font-style: normal; font-weight: 400; white-space: pre; font-size: 180px; text-decoration: none; direction: ltr; fill: rgb(252, 255, 255); fill-opacity: 1;"/></g><defs><pattern patternUnits="objectBoundingBox" width="604.109375" height="662" id="fill-0-render-57-3"><g><rect width="604.109375" height="662" style="fill: rgb(252, 255, 255); fill-opacity: 1;"/></g></pattern><pattern patternUnits="objectBoundingBox" width="604.109375" height="662" id="fill-1-render-57-3"><g><rect width="604.109375" height="662" style="fill: rgb(252, 255, 255); fill-opacity: 1;"/></g></pattern><pattern patternUnits="objectBoundingBox" width="604.109375" height="662" id="fill-2-render-57-3"><g><rect width="604.109375" height="662" style="fill: rgb(252, 255, 255); fill-opacity: 1;"/></g></pattern><pattern patternUnits="objectBoundingBox" width="604.109375" height="662" id="fill-3-render-57-3"><g><rect width="604.109375" height="662" style="fill: rgb(252, 255, 255); fill-opacity: 1;"/></g></pattern><pattern patternUnits="objectBoundingBox" width="604.109375" height="662" id="fill-4-render-57-3"><g><rect width="604.109375" height="662" style="fill: rgb(252, 255, 255); fill-opacity: 1;"/></g></pattern></defs><g class="fills" id="fills-673ef92b-6075-80fe-8007-8683427dfb58"><text x="94" y="540" dominant-baseline="ideographic" textLength="604.109375" lengthAdjust="spacingAndGlyphs" style="text-transform: none; font-family: &quot;Space Grotesk&quot;; letter-spacing: normal; font-style: normal; font-weight: 400; white-space: pre; font-size: 180px; text-decoration: none; direction: ltr; fill: rgb(252, 255, 255); fill-opacity: 1;">Way to</text></g><defs><pattern patternUnits="objectBoundingBox" width="604.109375" height="662" id="fill-0-render-57-4"><g><rect width="604.109375" height="662" style="fill: rgb(252, 255, 255); fill-opacity: 1;"/></g></pattern><pattern patternUnits="objectBoundingBox" width="604.109375" height="662" id="fill-1-render-57-4"><g><rect width="604.109375" height="662" style="fill: rgb(252, 255, 255); fill-opacity: 1;"/></g></pattern><pattern patternUnits="objectBoundingBox" width="604.109375" height="662" id="fill-2-render-57-4"><g><rect width="604.109375" height="662" style="fill: rgb(252, 255, 255); fill-opacity: 1;"/></g></pattern><pattern patternUnits="objectBoundingBox" width="604.109375" height="662" id="fill-3-render-57-4"><g><rect width="604.109375" height="662" style="fill: rgb(252, 255, 255); fill-opacity: 1;"/></g></pattern><pattern patternUnits="objectBoundingBox" width="604.109375" height="662" id="fill-4-render-57-4"><g><rect width="604.109375" height="662" style="fill: rgb(252, 255, 255); fill-opacity: 1;"/></g></pattern></defs><g class="fills" id="fills-673ef92b-6075-80fe-8007-8683427dfb58"><text x="94" y="742" dominant-baseline="ideographic" textLength="360" lengthAdjust="spacingAndGlyphs" style="text-transform: none; font-family: Tiny5; letter-spacing: normal; font-style: normal; font-weight: 400; white-space: pre; font-size: 180px; text-decoration: none; direction: ltr; fill: rgb(252, 255, 255); fill-opacity: 1;">Chat</text></g></g></g><g id="shape-673ef92b-6075-80fe-8007-8687a8ed7c60"><g transform="matrix(1.000000, 0.000000, 0.000000, 1.000000, 0.000000, 0.000000)" class="text-container" x="202" y="1655" width="192" height="87" rx="0" ry="0"><defs><pattern patternUnits="objectBoundingBox" width="191.5625" height="92" id="fill-0-render-58-0"><g><rect width="191.5625" height="92" style="fill: rgb(252, 255, 255); fill-opacity: 1;"/></g></pattern></defs><g class="fills" id="fills-673ef92b-6075-80fe-8007-8687a8ed7c60"><text x="202" y="1744" dominant-baseline="ideographic" textLength="191.5625" lengthAdjust="spacingAndGlyphs" style="text-transform: none; font-family: &quot;Space Grotesk&quot;; letter-spacing: normal; font-style: normal; font-weight: 400; white-space: pre; font-size: 72px; text-decoration: none; direction: ltr; fill: rgb(252, 255, 255); fill-opacity: 1;">Login</text></g></g></g><g id="shape-673ef92b-6075-80fe-8007-8687d2596fea"><g transform="matrix(1.000000, 0.000000, 0.000000, 1.000000, 0.000000, 0.000000)" class="text-container" x="633" y="1657" width="291" height="87" rx="0" ry="0"><defs><pattern patternUnits="objectBoundingBox" width="290.640625" height="92" id="fill-0-render-59-0"><g><rect width="290.640625" height="92" style="fill: rgb(45, 49, 50); fill-opacity: 1;"/></g></pattern></defs><g class="fills" id="fills-673ef92b-6075-80fe-8007-8687d2596fea"><text x="633" y="1746" dominant-baseline="ideographic" textLength="290.640625" lengthAdjust="spacingAndGlyphs" style="text-transform: none; font-family: &quot;Space Grotesk&quot;; letter-spacing: normal; font-style: normal; font-weight: 400; white-space: pre; font-size: 72px; text-decoration: none; direction: ltr; fill: rgb(45, 49, 50); fill-opacity: 1;">Register</text></g></g></g><g id="shape-673ef92b-6075-80fe-8007-868869205b19"><g class="fills" id="fills-673ef92b-6075-80fe-8007-868869205b19"><rect rx="0" ry="0" x="92" y="817" transform="matrix(1.000000, 0.000000, 0.000000, 1.000000, 0.000000, 0.000000)" width="917" height="739" style="fill: rgb(45, 49, 50); fill-opacity: 0.8;"/></g></g><g id="shape-673ef92b-6075-80fe-8007-8688d07bf049"><g class="fills" id="fills-673ef92b-6075-80fe-8007-8688d07bf049"><path d="M179,1050L647.39306640625,1050"/></g><g id="strokes-72b9fc48-7eed-8043-8007-8f861632674e-673ef92b-6075-80fe-8007-8688d07bf049" class="strokes"><g class="stroke-shape"><path d="M179,1050L647.39306640625,1050" style="fill: none; stroke-width: 8; stroke: rgb(252, 255, 255); stroke-opacity: 1; stroke-linecap: square;"/></g></g></g><g id="shape-673ef92b-6075-80fe-8007-8688fdf485f3"><g class="fills" id="fills-673ef92b-6075-80fe-8007-8688fdf485f3"><path d="M179,1216L911.823486328125,1216"/></g><g id="strokes-72b9fc48-7eed-8043-8007-8f8616328e48-673ef92b-6075-80fe-8007-8688fdf485f3" class="strokes"><g class="stroke-shape"><path d="M179,1216L911.823486328125,1216" style="fill: none; stroke-width: 8; stroke: rgb(252, 255, 255); stroke-opacity: 1; stroke-linecap: square;"/></g></g></g><g id="shape-673ef92b-6075-80fe-8007-86891ff25bff"><g class="fills" id="fills-673ef92b-6075-80fe-8007-86891ff25bff"><path d="M179,1394L911.823486328125,1394"/></g><g id="strokes-72b9fc48-7eed-8043-8007-8f861632dbc1-673ef92b-6075-80fe-8007-86891ff25bff" class="strokes"><g class="stroke-shape"><path d="M179,1394L911.823486328125,1394" style="fill: none; stroke-width: 8; stroke: rgb(252, 255, 255); stroke-opacity: 1; stroke-linecap: square;"/></g></g></g><g id="shape-673ef92b-6075-80fe-8007-86896b90b897"><g transform="matrix(1.000000, 0.000000, 0.000000, 1.000000, 0.000000, 0.000000)" class="text-container" x="186" y="1295" width="329" height="87" rx="0" ry="0"><defs><pattern patternUnits="objectBoundingBox" width="328.375" height="92" id="fill-0-render-64-0"><g><rect width="328.375" height="92" style="fill: rgb(252, 255, 255); fill-opacity: 0.4;"/></g></pattern></defs><g class="fills" id="fills-673ef92b-6075-80fe-8007-86896b90b897"><text x="186" y="1384" dominant-baseline="ideographic" textLength="328.375" lengthAdjust="spacingAndGlyphs" style="text-transform: none; font-family: &quot;Space Grotesk&quot;; letter-spacing: normal; font-style: normal; font-weight: 400; white-space: pre; font-size: 72px; text-decoration: none; direction: ltr; fill: rgb(252, 255, 255); fill-opacity: 0.4;">Server url</text></g></g></g><g id="shape-673ef92b-6075-80fe-8007-8689985e7822"><g transform="matrix(1.000000, 0.000000, 0.000000, 1.000000, 0.000000, 0.000000)" class="text-container" x="184.51295823846885" y="1118" width="593" height="87" rx="0" ry="0"><defs><pattern patternUnits="objectBoundingBox" width="592.90625" height="92" id="fill-0-render-65-0"><g><rect width="592.90625" height="92" style="fill: rgb(252, 255, 255); fill-opacity: 0.4;"/></g></pattern></defs><g class="fills" id="fills-673ef92b-6075-80fe-8007-8689985e7822"><text x="184.51295823846885" y="1207" dominant-baseline="ideographic" textLength="592.90625" lengthAdjust="spacingAndGlyphs" style="text-transform: none; font-family: &quot;Space Grotesk&quot;; letter-spacing: normal; font-style: normal; font-weight: 400; white-space: pre; font-size: 72px; text-decoration: none; direction: ltr; fill: rgb(252, 255, 255); fill-opacity: 0.4;">Strong password</text></g></g></g><g id="shape-673ef92b-6075-80fe-8007-8689a38f5c79"><g transform="matrix(1.000000, 0.000000, 0.000000, 1.000000, 0.000000, 0.000000)" class="text-container" x="187" y="947" width="346" height="87" rx="0" ry="0"><defs><pattern patternUnits="objectBoundingBox" width="345.75" height="92" id="fill-0-render-66-0"><g><rect width="345.75" height="92" style="fill: rgb(252, 255, 255); fill-opacity: 0.4;"/></g></pattern></defs><g class="fills" id="fills-673ef92b-6075-80fe-8007-8689a38f5c79"><text x="187" y="1036" dominant-baseline="ideographic" textLength="345.75" lengthAdjust="spacingAndGlyphs" style="text-transform: none; font-family: &quot;Space Grotesk&quot;; letter-spacing: normal; font-style: normal; font-weight: 400; white-space: pre; font-size: 72px; text-decoration: none; direction: ltr; fill: rgb(252, 255, 255); fill-opacity: 0.4;">Username</text></g></g></g><g id="shape-bc2e7133-bce3-8014-8007-8d13424a9f29" width="24" class="lucide lucide-eye-icon lucide-eye" height="24" rx="0" ry="0" style="fill: rgb(0, 0, 0);"><g id="shape-bc2e7133-bce3-8014-8007-8d13424b898a" style="display: none;"><g class="fills" id="fills-bc2e7133-bce3-8014-8007-8d13424b898a"><rect width="79" height="79" x="827" stroke-linejoin="round" transform="matrix(1.000000, 0.000000, 0.000000, 1.000000, 0.000000, 0.000000)" style="fill: none;" ry="0" fill="none" stroke-linecap="round" rx="0" y="1127"/></g><g fill="none" stroke-linejoin="round" stroke-linecap="round" id="strokes-72b9fc48-7eed-8043-8007-8f8616342098-bc2e7133-bce3-8014-8007-8d13424b898a" class="strokes"><g class="inner-stroke-shape" transform="matrix(1.000000, 0.000000, 0.000000, 1.000000, 0.000000, 0.000000)"><defs><clipPath id="inner-stroke-render-68-bc2e7133-bce3-8014-8007-8d13424b898a-0"><use href="#stroke-shape-render-68-bc2e7133-bce3-8014-8007-8d13424b898a-0"/></clipPath><rect rx="0" ry="0" x="827" y="1127" width="79" height="79" id="stroke-shape-render-68-bc2e7133-bce3-8014-8007-8d13424b898a-0" style="fill: none; stroke-width: 4; stroke: rgb(252, 255, 255); stroke-opacity: 1;"/></defs><use href="#stroke-shape-render-68-bc2e7133-bce3-8014-8007-8d13424b898a-0" clip-path="url('#inner-stroke-render-68-bc2e7133-bce3-8014-8007-8d13424b898a-0')"/></g></g></g><g id="shape-bc2e7133-bce3-8014-8007-8d13424bfefc"><g class="fills" id="fills-bc2e7133-bce3-8014-8007-8d13424bfefc"><path d="M833.787353515625,1167.6456298828125C833.513427734375,1166.9066162109375,833.513427734375,1166.0933837890625,833.787353515625,1165.3543701171875C839.251220703125,1152.1053466796875,852.16796875,1143.4603271484375,866.5,1143.4603271484375C880.83203125,1143.4603271484375,893.748779296875,1152.1053466796875,899.212646484375,1165.3543701171875C899.486572265625,1166.0933837890625,899.486572265625,1166.9066162109375,899.212646484375,1167.6456298828125C893.748779296875,1180.8946533203125,880.83203125,1189.5396728515625,866.5,1189.5396728515625C852.16796875,1189.5396728515625,839.251220703125,1180.8946533203125,833.787353515625,1167.6456298828125" fill="none" stroke-linejoin="round" stroke-linecap="round" style="fill: none;"/></g><g fill="none" stroke-linejoin="round" stroke-linecap="round" id="strokes-72b9fc48-7eed-8043-8007-8f8616345f1f-bc2e7133-bce3-8014-8007-8d13424bfefc" class="strokes"><g class="inner-stroke-shape"><defs><clipPath id="inner-stroke-render-69-bc2e7133-bce3-8014-8007-8d13424bfefc-0"><use href="#stroke-shape-render-69-bc2e7133-bce3-8014-8007-8d13424bfefc-0"/></clipPath><path d="M833.787353515625,1167.6456298828125C833.513427734375,1166.9066162109375,833.513427734375,1166.0933837890625,833.787353515625,1165.3543701171875C839.251220703125,1152.1053466796875,852.16796875,1143.4603271484375,866.5,1143.4603271484375C880.83203125,1143.4603271484375,893.748779296875,1152.1053466796875,899.212646484375,1165.3543701171875C899.486572265625,1166.0933837890625,899.486572265625,1166.9066162109375,899.212646484375,1167.6456298828125C893.748779296875,1180.8946533203125,880.83203125,1189.5396728515625,866.5,1189.5396728515625C852.16796875,1189.5396728515625,839.251220703125,1180.8946533203125,833.787353515625,1167.6456298828125" id="stroke-shape-render-69-bc2e7133-bce3-8014-8007-8d13424bfefc-0" style="fill: none; stroke-width: 10; stroke: rgb(252, 255, 255); stroke-opacity: 1;"/></defs><use href="#stroke-shape-render-69-bc2e7133-bce3-8014-8007-8d13424bfefc-0" clip-path="url('#inner-stroke-render-69-bc2e7133-bce3-8014-8007-8d13424bfefc-0')"/></g></g></g><g id="shape-bc2e7133-bce3-8014-8007-8d13424bfefd"><g class="fills" id="fills-bc2e7133-bce3-8014-8007-8d13424bfefd"><ellipse cy="1166.5" stroke-linejoin="round" transform="matrix(1.000000, 0.000000, 0.000000, 1.000000, 0.000000, 0.000000)" style="fill: none;" ry="9.875" fill="none" stroke-linecap="round" rx="9.875" cx="866.5"/></g><g fill="none" stroke-linejoin="round" stroke-linecap="round" id="strokes-72b9fc48-7eed-8043-8007-8f861634ad0f-bc2e7133-bce3-8014-8007-8d13424bfefd" class="strokes"><g class="inner-stroke-shape" transform="matrix(1.000000, 0.000000, 0.000000, 1.000000, 0.000000, 0.000000)"><defs><clipPath id="inner-stroke-render-70-bc2e7133-bce3-8014-8007-8d13424bfefd-0"><use href="#stroke-shape-render-70-bc2e7133-bce3-8014-8007-8d13424bfefd-0"/></clipPath><ellipse cx="866.5" cy="1166.5" rx="9.875" ry="9.875" id="stroke-shape-render-70-bc2e7133-bce3-8014-8007-8d13424bfefd-0" style="fill: none; stroke-width: 8; stroke: rgb(252, 255, 255); stroke-opacity: 1;"/></defs><use href="#stroke-shape-render-70-bc2e7133-bce3-8014-8007-8d13424bfefd-0" clip-path="url('#inner-stroke-render-70-bc2e7133-bce3-8014-8007-8d13424bfefd-0')"/></g></g></g></g></g></g></g></g></g></g></svg>