<svg width="1080" xmlns="http://www.w3.org/2000/svg" height="1920" id="screenshot-bc2e7133-bce3-8014-8007-8d0ea70a17ed" viewBox="0 0 1080 1920" xmlns:xlink="http://www.w3.org/1999/xlink" fill="none" version="1.1"><style>/* vietnamese */
@font-face {
  font-family: 'Space Grotesk';
  font-style: normal;
  font-weight: 400;
  font-display: block;
  src: url(http://penpot-frontend:8080/internal/gfonts/font/spacegrotesk/v22/V8mQoQDjQSkFtoMM3T6r8E7mF71Q-gOoraIAEj7oUXsrPMBTTA.woff2) format('woff2');
  unicode-range: U+0102-0103, U+0110-0111, U+0128-0129, U+0168-0169, U+01A0-01A1, U+01AF-01B0, U+0300-0301, U+0303-0304, U+0308-0309, U+0323, U+0329, U+1EA0-1EF9, U+20AB;
}
/* latin-ext */
@font-face {
  font-family: 'Space Grotesk';
  font-style: normal;
  font-weight: 400;
  font-display: block;
  src: url(http://penpot-frontend:8080/internal/gfonts/font/spacegrotesk/v22/V8mQoQDjQSkFtoMM3T6r8E7mF71Q-gOoraIAEj7oUXsqPMBTTA.woff2) format('woff2');
  unicode-range: U+0100-02BA, U+02BD-02C5, U+02C7-02CC, U+02CE-02D7, U+02DD-02FF, U+0304, U+0308, U+0329, U+1D00-1DBF, U+1E00-1E9F, U+1EF2-1EFF, U+2020, U+20A0-20AB, U+20AD-20C0, U+2113, U+2C60-2C7F, U+A720-A7FF;
}
/* latin */
@font-face {
  font-family: 'Space Grotesk';
  font-style: normal;
  font-weight: 400;
  font-display: block;
  src: url(http://penpot-frontend:8080/internal/gfonts/font/spacegrotesk/v22/V8mQoQDjQSkFtoMM3T6r8E7mF71Q-gOoraIAEj7oUXskPMA.woff2) format('woff2');
  unicode-range: U+0000-00FF, U+0131, U+0152-0153, U+02BB-02BC, U+02C6, U+02DA, U+02DC, U+0304, U+0308, U+0329, U+2000-206F, U+20AC, U+2122, U+2191, U+2193, U+2212, U+2215, U+FEFF, U+FFFD;
}
</style><g id="shape-bc2e7133-bce3-8014-8007-8d0ea70a17ed"><defs><clipPath id="frame-clip-bc2e7133-bce3-8014-8007-8d0ea70a17ed-render-71" class="frame-clip frame-clip-def"><rect rx="0" ry="0" x="0" y="0" width="1080" height="1920" transform="matrix(1.000000, 0.000000, 0.000000, 1.000000, 0.000000, 0.000000)"/></clipPath></defs><g class="frame-container-wrapper"><g class="frame-container-blur"><g class="frame-container-shadows"><g clip-path="url(#frame-clip-bc2e7133-bce3-8014-8007-8d0ea70a17ed-render-71)" fill="none"><g class="fills" id="fills-bc2e7133-bce3-8014-8007-8d0ea70a17ed"><rect width="1080" height="1920" class="frame-background" x="0" transform="matrix(1.000000, 0.000000, 0.000000, 1.000000, 0.000000, 0.000000)" style="fill: rgb(45, 49, 50); fill-opacity: 1;" ry="0" rx="0" y="0"/></g><g class="frame-children"><g id="shape-bc2e7133-bce3-8014-8007-8d13ffeb109a" width="1080" height="1920" rx="0" ry="0" style="fill: rgb(0, 0, 0);"><g id="shape-bc2e7133-bce3-8014-8007-8d13ffebe78c" style="display: none;"><g class="fills" id="fills-bc2e7133-bce3-8014-8007-8d13ffebe78c"><rect width="1080" height="1920" x="-4" transform="matrix(1.000000, 0.000000, 0.000000, 1.000000, 0.000000, 0.000000)" style="fill: none;" ry="0" fill="none" rx="0" y="-30"/></g></g><g id="shape-bc2e7133-bce3-8014-8007-8d13ffec33a9"><g class="fills" id="fills-bc2e7133-bce3-8014-8007-8d13ffec33a9"><rect rx="0" ry="0" x="-4" y="-30" transform="matrix(1.000000, 0.000000, 0.000000, 1.000000, 0.000000, 0.000000)" width="1080" height="1920" style="fill: rgb(45, 49, 50);"/></g></g><g id="shape-bc2e7133-bce3-8014-8007-8d13ffec785c"><g class="fills" id="fills-bc2e7133-bce3-8014-8007-8d13ffec785c"><path d="M-4,1115L41,1145.199951171875C86,1175.300048828125,176,1235.699951171875,266,1247.300048828125C356,1259,446,1222,536,1219.199951171875C626,1216.300048828125,716,1247.699951171875,806,1252.800048828125C896,1258,986,1237,1031,1226.5L1076,1216L1076,1891L1031,1891C986,1891,896,1891,806,1891C716,1891,626,1891,536,1891C446,1891,356,1891,266,1891C176,1891,86,1891,41,1891L-4,1891Z" style="fill: rgb(45, 49, 50);"/></g></g><g id="shape-bc2e7133-bce3-8014-8007-8d13ffec785d"><g class="fills" id="fills-bc2e7133-bce3-8014-8007-8d13ffec785d"><path d="M-4,1224L41,1240.199951171875C86,1256.300048828125,176,1288.699951171875,266,1300C356,1311.300048828125,446,1301.699951171875,536,1316C626,1330.300048828125,716,1368.699951171875,806,1369.199951171875C896,1369.699951171875,986,1332.300048828125,1031,1313.699951171875L1076,1295L1076,1891L1031,1891C986,1891,896,1891,806,1891C716,1891,626,1891,536,1891C446,1891,356,1891,266,1891C176,1891,86,1891,41,1891L-4,1891Z" style="fill: rgb(67, 71, 72);"/></g></g><g id="shape-bc2e7133-bce3-8014-8007-8d13ffecb742"><g class="fills" id="fills-bc2e7133-bce3-8014-8007-8d13ffecb742"><path d="M-4,1279L41,1309.800048828125C86,1340.699951171875,176,1402.300048828125,266,1416.5C356,1430.699951171875,446,1397.300048828125,536,1381C626,1364.699951171875,716,1365.300048828125,806,1348.800048828125C896,1332.300048828125,986,1298.699951171875,1031,1281.800048828125L1076,1265L1076,1891L1031,1891C986,1891,896,1891,806,1891C716,1891,626,1891,536,1891C446,1891,356,1891,266,1891C176,1891,86,1891,41,1891L-4,1891Z" style="fill: rgb(91, 95, 95);"/></g></g><g id="shape-bc2e7133-bce3-8014-8007-8d13ffecb743"><g class="fills" id="fills-bc2e7133-bce3-8014-8007-8d13ffecb743"><path d="M-4,1342L41,1362.199951171875C86,1382.300048828125,176,1422.699951171875,266,1443.199951171875C356,1463.699951171875,446,1464.300048828125,536,1465C626,1465.699951171875,716,1466.300048828125,806,1471.300048828125C896,1476.300048828125,986,1485.699951171875,1031,1490.300048828125L1076,1495L1076,1891L1031,1891C986,1891,896,1891,806,1891C716,1891,626,1891,536,1891C446,1891,356,1891,266,1891C176,1891,86,1891,41,1891L-4,1891Z" style="fill: rgb(115, 119, 120);"/></g></g><g id="shape-bc2e7133-bce3-8014-8007-8d13ffece231"><g class="fills" id="fills-bc2e7133-bce3-8014-8007-8d13ffece231"><path d="M-4,1441L41,1454.5C86,1468,176,1495,266,1520.199951171875C356,1545.300048828125,446,1568.699951171875,536,1565C626,1561.300048828125,716,1530.699951171875,806,1500.699951171875C896,1470.699951171875,986,1441.300048828125,1031,1426.699951171875L1076,1412L1076,1891L1031,1891C986,1891,896,1891,806,1891C716,1891,626,1891,536,1891C446,1891,356,1891,266,1891C176,1891,86,1891,41,1891L-4,1891Z" style="fill: rgb(141, 145, 145);"/></g></g><g id="shape-bc2e7133-bce3-8014-8007-8d13ffece232"><g class="fills" id="fills-bc2e7133-bce3-8014-8007-8d13ffece232"><path d="M-4,1604L41,1592C86,1580,176,1556,266,1554.5C356,1553,446,1574,536,1578.300048828125C626,1582.699951171875,716,1570.300048828125,806,1576.800048828125C896,1583.300048828125,986,1608.699951171875,1031,1621.300048828125L1076,1634L1076,1891L1031,1891C986,1891,896,1891,806,1891C716,1891,626,1891,536,1891C446,1891,356,1891,266,1891C176,1891,86,1891,41,1891L-4,1891Z" style="fill: rgb(168, 171, 171);"/></g></g><g id="shape-bc2e7133-bce3-8014-8007-8d13ffece233"><g class="fills" id="fills-bc2e7133-bce3-8014-8007-8d13ffece233"><path d="M-4,1683L41,1683.5C86,1684,176,1685,266,1690.199951171875C356,1695.300048828125,446,1704.699951171875,536,1692.699951171875C626,1680.699951171875,716,1647.300048828125,806,1645.800048828125C896,1644.300048828125,986,1674.699951171875,1031,1689.800048828125L1076,1705L1076,1891L1031,1891C986,1891,896,1891,806,1891C716,1891,626,1891,536,1891C446,1891,356,1891,266,1891C176,1891,86,1891,41,1891L-4,1891Z" style="fill: rgb(195, 199, 199);"/></g></g><g id="shape-bc2e7133-bce3-8014-8007-8d13ffed2d09"><g class="fills" id="fills-bc2e7133-bce3-8014-8007-8d13ffed2d09"><path d="M-4,1689L41,1698.5C86,1708,176,1727,266,1730.5C356,1734,446,1722,536,1724.800048828125C626,1727.699951171875,716,1745.300048828125,806,1756.300048828125C896,1767.300048828125,986,1771.699951171875,1031,1773.800048828125L1076,1776L1076,1891L1031,1891C986,1891,896,1891,806,1891C716,1891,626,1891,536,1891C446,1891,356,1891,266,1891C176,1891,86,1891,41,1891L-4,1891Z" style="fill: rgb(223, 226, 226);"/></g></g><g id="shape-bc2e7133-bce3-8014-8007-8d13ffed2d0a"><g class="fills" id="fills-bc2e7133-bce3-8014-8007-8d13ffed2d0a"><path d="M-4,1792L41,1800.199951171875C86,1808.300048828125,176,1824.699951171875,266,1831.199951171875C356,1837.699951171875,446,1834.300048828125,536,1823.199951171875C626,1812,716,1793,806,1788.199951171875C896,1783.300048828125,986,1792.699951171875,1031,1797.300048828125L1076,1802L1076,1891L1031,1891C986,1891,896,1891,806,1891C716,1891,626,1891,536,1891C446,1891,356,1891,266,1891C176,1891,86,1891,41,1891L-4,1891Z" style="fill: rgb(252, 255, 255);"/></g></g></g><g id="shape-bc2e7133-bce3-8014-8007-8d0ea70a17ee"><g class="fills" id="fills-bc2e7133-bce3-8014-8007-8d0ea70a17ee"><rect rx="0" ry="0" x="-51" y="-396" transform="matrix(1.000000, 0.000000, 0.000000, 1.000000, 0.000000, 0.000000)" width="207" height="207.00000000000006" style="fill: rgb(252, 255, 255); fill-opacity: 0.2;"/></g></g><g id="shape-bc2e7133-bce3-8014-8007-8d0ea70a17fb"><g class="fills" id="fills-bc2e7133-bce3-8014-8007-8d0ea70a17fb"><rect rx="0" ry="0" x="41" y="63" transform="matrix(1.000000, 0.000000, 0.000000, 1.000000, 0.000000, 0.000000)" width="125" height="125" style="fill: rgb(252, 255, 255); fill-opacity: 1;"/></g></g><g id="shape-bc2e7133-bce3-8014-8007-8d1020486d92"><g class="fills" id="fills-bc2e7133-bce3-8014-8007-8d1020486d92"><rect rx="0" ry="0" x="111" y="1337" transform="matrix(1.000000, 0.000000, 0.000000, 1.000000, 0.000000, 0.000000)" width="365" height="125" style="fill: rgb(252, 255, 255); fill-opacity: 1;"/></g><g id="strokes-72b9fc48-7eed-8043-8007-8f861637d5e3-bc2e7133-bce3-8014-8007-8d1020486d92" class="strokes"><g class="outer-stroke-shape"><defs><mask id="outer-stroke-render-86-bc2e7133-bce3-8014-8007-8d1020486d92-0" x="96.85786437626905" y="1322.857864376269" width="393.2842712474619" height="153.2842712474619" maskUnits="userSpaceOnUse"><use href="#stroke-shape-render-86-bc2e7133-bce3-8014-8007-8d1020486d92-0" style="fill: none; stroke: white; stroke-width: 20;"/><use href="#stroke-shape-render-86-bc2e7133-bce3-8014-8007-8d1020486d92-0" style="fill: black; stroke: none;"/></mask><rect rx="0" ry="0" x="111" y="1337" transform="matrix(1.000000, 0.000000, 0.000000, 1.000000, 0.000000, 0.000000)" width="365" height="125" id="stroke-shape-render-86-bc2e7133-bce3-8014-8007-8d1020486d92-0"/></defs><use href="#stroke-shape-render-86-bc2e7133-bce3-8014-8007-8d1020486d92-0" mask="url(#outer-stroke-render-86-bc2e7133-bce3-8014-8007-8d1020486d92-0)" style="fill: none; stroke-width: 20; stroke: rgb(45, 49, 50); stroke-opacity: 1;"/><use href="#stroke-shape-render-86-bc2e7133-bce3-8014-8007-8d1020486d92-0" style="fill: none; stroke-width: 10; stroke: none; stroke-opacity: 1;"/></g></g></g><g id="shape-bc2e7133-bce3-8014-8007-8d1090bf6823"><g class="fills" id="fills-bc2e7133-bce3-8014-8007-8d1090bf6823"><rect rx="0" ry="0" x="614" y="1337" transform="matrix(1.000000, 0.000000, 0.000000, 1.000000, 0.000000, 0.000000)" width="365" height="125" style="fill: rgb(252, 255, 255); fill-opacity: 1;"/></g><g id="strokes-72b9fc48-7eed-8043-8007-8f8616382ce9-bc2e7133-bce3-8014-8007-8d1090bf6823" class="strokes"><g class="outer-stroke-shape"><defs><mask id="outer-stroke-render-87-bc2e7133-bce3-8014-8007-8d1090bf6823-0" x="599.857864376269" y="1322.857864376269" width="393.2842712474619" height="153.2842712474619" maskUnits="userSpaceOnUse"><use href="#stroke-shape-render-87-bc2e7133-bce3-8014-8007-8d1090bf6823-0" style="fill: none; stroke: white; stroke-width: 20;"/><use href="#stroke-shape-render-87-bc2e7133-bce3-8014-8007-8d1090bf6823-0" style="fill: black; stroke: none;"/></mask><rect rx="0" ry="0" x="614" y="1337" transform="matrix(1.000000, 0.000000, 0.000000, 1.000000, 0.000000, 0.000000)" width="365" height="125" id="stroke-shape-render-87-bc2e7133-bce3-8014-8007-8d1090bf6823-0"/></defs><use href="#stroke-shape-render-87-bc2e7133-bce3-8014-8007-8d1090bf6823-0" mask="url(#outer-stroke-render-87-bc2e7133-bce3-8014-8007-8d1090bf6823-0)" style="fill: none; stroke-width: 20; stroke: rgb(45, 49, 50); stroke-opacity: 1;"/><use href="#stroke-shape-render-87-bc2e7133-bce3-8014-8007-8d1090bf6823-0" style="fill: none; stroke-width: 10; stroke: none; stroke-opacity: 1;"/></g></g></g><g id="shape-bc2e7133-bce3-8014-8007-8d0ea70a17ff"><g class="fills" id="fills-bc2e7133-bce3-8014-8007-8d0ea70a17ff"><rect rx="0" ry="0" x="41" y="250" transform="matrix(1.000000, 0.000000, 0.000000, 1.000000, 0.000000, 0.000000)" width="998.9999999999995" height="125" style="fill: rgb(252, 255, 255); fill-opacity: 1;"/></g></g><g id="shape-bc2e7133-bce3-8014-8007-8d0ea70a1800"><g class="fills" id="fills-bc2e7133-bce3-8014-8007-8d0ea70a1800"><path d="M71.95458984375,93.37582397460938L137,159L70,159L122.5166015625,106.01589965820312L109.61572265625,93"/></g><g id="strokes-72b9fc48-7eed-8043-8007-8f8616386ba6-bc2e7133-bce3-8014-8007-8d0ea70a1800" class="strokes"><g class="stroke-shape"><path d="M71.95458984375,93.37582397460938L137,159L70,159L122.5166015625,106.01589965820312L109.61572265625,93" style="fill: none; stroke-width: 8; stroke: rgb(45, 49, 50); stroke-opacity: 1;"/></g></g></g><g id="shape-bc2e7133-bce3-8014-8007-8d0ea70a1802"><g class="fills" id="fills-bc2e7133-bce3-8014-8007-8d0ea70a1802"><rect rx="40" ry="40" x="0" y="1703" transform="matrix(1.000000, 0.000000, 0.000000, 1.000000, 0.000000, 0.000000)" width="1080.0000000000005" height="270" style="fill: rgb(31, 34, 35); fill-opacity: 1;"/></g></g><g id="shape-bc2e7133-bce3-8014-8007-8d0ea70a1803" width="24" class="lucide lucide-info-icon lucide-info" height="24" rx="0" ry="0" style="fill: rgb(0, 0, 0);"><g id="shape-bc2e7133-bce3-8014-8007-8d0ea70a1809" style="display: none;"><g class="fills" id="fills-bc2e7133-bce3-8014-8007-8d0ea70a1809"><rect width="100" height="100" x="489" stroke-linejoin="round" transform="matrix(1.000000, 0.000000, 0.000000, 1.000000, 0.000000, 0.000000)" style="fill: none;" ry="0" fill="none" stroke-linecap="round" rx="0" y="1754"/></g><g fill="none" stroke-linejoin="round" stroke-linecap="round" id="strokes-72b9fc48-7eed-8043-8007-8f861638f135-bc2e7133-bce3-8014-8007-8d0ea70a1809" class="strokes"><g class="stroke-shape"><rect rx="0" ry="0" x="489" y="1754" transform="matrix(1.000000, 0.000000, 0.000000, 1.000000, 0.000000, 0.000000)" width="100" height="100" style="fill: none; stroke-width: 6; stroke: rgb(252, 255, 255); stroke-opacity: 1;"/></g></g></g><g id="shape-bc2e7133-bce3-8014-8007-8d0ea70a180a"><g class="fills" id="fills-bc2e7133-bce3-8014-8007-8d0ea70a180a"><ellipse cy="1804.000000000001" stroke-linejoin="round" transform="matrix(1.000000, 0.000000, 0.000000, 1.000000, 0.000000, 0.000000)" style="fill: none;" ry="41.66666666666697" fill="none" stroke-linecap="round" rx="41.666666666666515" cx="538.9999999999995"/></g><g fill="none" stroke-linejoin="round" stroke-linecap="round" id="strokes-72b9fc48-7eed-8043-8007-8f8616393922-bc2e7133-bce3-8014-8007-8d0ea70a180a" class="strokes"><g class="stroke-shape"><ellipse cx="538.9999999999995" cy="1804.000000000001" rx="41.666666666666515" ry="41.66666666666697" transform="matrix(1.000000, 0.000000, 0.000000, 1.000000, 0.000000, 0.000000)" style="fill: none; stroke-width: 6; stroke: rgb(252, 255, 255); stroke-opacity: 1;"/></g></g></g><g id="shape-bc2e7133-bce3-8014-8007-8d0ea70a180b"><g class="fills" id="fills-bc2e7133-bce3-8014-8007-8d0ea70a180b"><path d="M539,1820.666748046875L539,1804" fill="none" stroke-linejoin="round" stroke-linecap="round" style="fill: none;"/></g><g fill="none" stroke-linejoin="round" stroke-linecap="round" id="strokes-72b9fc48-7eed-8043-8007-8f8616393923-bc2e7133-bce3-8014-8007-8d0ea70a180b" class="strokes"><g class="stroke-shape"><path d="M539,1820.666748046875L539,1804" style="fill: none; stroke-width: 6; stroke: rgb(252, 255, 255); stroke-opacity: 1;"/></g></g></g><g id="shape-bc2e7133-bce3-8014-8007-8d0ea70a180c"><g class="fills" id="fills-bc2e7133-bce3-8014-8007-8d0ea70a180c"><path d="M539,1787.333251953125L539.041748046875,1787.333251953125" fill="none" stroke-linejoin="round" stroke-linecap="round" style="fill: none;"/></g><g fill="none" stroke-linejoin="round" stroke-linecap="round" id="strokes-72b9fc48-7eed-8043-8007-8f8616394203-bc2e7133-bce3-8014-8007-8d0ea70a180c" class="strokes"><g class="stroke-shape"><path d="M539,1787.333251953125L539.041748046875,1787.333251953125" style="fill: none; stroke-width: 6; stroke: rgb(252, 255, 255); stroke-opacity: 1;"/></g></g></g></g><g id="shape-bc2e7133-bce3-8014-8007-8d0ea70a1807" width="24" class="lucide lucide-message-square-text-icon lucide-message-square-text" height="24" rx="0" ry="0" style="fill: rgb(0, 0, 0);"><g id="shape-bc2e7133-bce3-8014-8007-8d0ea70a180d" style="display: none;"><g class="fills" id="fills-bc2e7133-bce3-8014-8007-8d0ea70a180d"><rect width="100" height="100" x="259" stroke-linejoin="round" transform="matrix(1.000000, 0.000000, 0.000000, 1.000000, 0.000000, 0.000000)" style="fill: none;" ry="0" fill="none" stroke-linecap="round" rx="0" y="1754"/></g><g fill="none" stroke-linejoin="round" stroke-linecap="round" id="strokes-72b9fc48-7eed-8043-8007-8f861639c02b-bc2e7133-bce3-8014-8007-8d0ea70a180d" class="strokes"><g class="stroke-shape"><rect rx="0" ry="0" x="259" y="1754" transform="matrix(1.000000, 0.000000, 0.000000, 1.000000, 0.000000, 0.000000)" width="100" height="100" style="fill: none; stroke-width: 6; stroke: rgb(252, 255, 255); stroke-opacity: 1;"/></g></g></g><g id="shape-bc2e7133-bce3-8014-8007-8d0ea70a180e"><g class="fills" id="fills-bc2e7133-bce3-8014-8007-8d0ea70a180e"><path d="M350.66650390625,1824.8333740234375C350.66650390625,1829.435791015625,346.935546875,1833.1666259765625,342.33349609375,1833.1666259765625L287.449951171875,1833.1666259765625C285.239990234375,1833.167236328125,283.120849609375,1834.0455322265625,281.558349609375,1835.608642578125L272.38330078125,1844.783203125C271.537353515625,1845.6290283203125,270.264892578125,1845.88232421875,269.15966796875,1845.4246826171875C268.05419921875,1844.966796875,267.33349609375,1843.887939453125,267.33349609375,1842.691650390625L267.33349609375,1774.8333740234375C267.33349609375,1770.230712890625,271.064453125,1766.5,275.66650390625,1766.5L342.33349609375,1766.5C346.935546875,1766.5,350.66650390625,1770.230712890625,350.66650390625,1774.8333740234375Z" fill="none" stroke-linejoin="round" stroke-linecap="round" style="fill: none;"/></g><g fill="none" stroke-linejoin="round" stroke-linecap="round" id="strokes-72b9fc48-7eed-8043-8007-8f861639c02c-bc2e7133-bce3-8014-8007-8d0ea70a180e" class="strokes"><g class="stroke-shape"><path d="M350.66650390625,1824.8333740234375C350.66650390625,1829.435791015625,346.935546875,1833.1666259765625,342.33349609375,1833.1666259765625L287.449951171875,1833.1666259765625C285.239990234375,1833.167236328125,283.120849609375,1834.0455322265625,281.558349609375,1835.608642578125L272.38330078125,1844.783203125C271.537353515625,1845.6290283203125,270.264892578125,1845.88232421875,269.15966796875,1845.4246826171875C268.05419921875,1844.966796875,267.33349609375,1843.887939453125,267.33349609375,1842.691650390625L267.33349609375,1774.8333740234375C267.33349609375,1770.230712890625,271.064453125,1766.5,275.66650390625,1766.5L342.33349609375,1766.5C346.935546875,1766.5,350.66650390625,1770.230712890625,350.66650390625,1774.8333740234375Z" style="fill: none; stroke-width: 6; stroke: rgb(252, 255, 255); stroke-opacity: 1;"/></g></g></g><g id="shape-bc2e7133-bce3-8014-8007-8d0ea70a180f"><g class="fills" id="fills-bc2e7133-bce3-8014-8007-8d0ea70a180f"><path d="M288.16650390625,1799.8333740234375L329.83349609375,1799.8333740234375" fill="none" stroke-linejoin="round" stroke-linecap="round" style="fill: none;"/></g><g fill="none" stroke-linejoin="round" stroke-linecap="round" id="strokes-72b9fc48-7eed-8043-8007-8f86163a01f0-bc2e7133-bce3-8014-8007-8d0ea70a180f" class="strokes"><g class="stroke-shape"><path d="M288.16650390625,1799.8333740234375L329.83349609375,1799.8333740234375" style="fill: none; stroke-width: 6; stroke: rgb(252, 255, 255); stroke-opacity: 1;"/></g></g></g><g id="shape-bc2e7133-bce3-8014-8007-8d0ea70a1810"><g class="fills" id="fills-bc2e7133-bce3-8014-8007-8d0ea70a1810"><path d="M288.16650390625,1816.5L313.16650390625,1816.5" fill="none" stroke-linejoin="round" stroke-linecap="round" style="fill: none;"/></g><g fill="none" stroke-linejoin="round" stroke-linecap="round" id="strokes-72b9fc48-7eed-8043-8007-8f86163a7bf4-bc2e7133-bce3-8014-8007-8d0ea70a1810" class="strokes"><g class="stroke-shape"><path d="M288.16650390625,1816.5L313.16650390625,1816.5" style="fill: none; stroke-width: 6; stroke: rgb(252, 255, 255); stroke-opacity: 1;"/></g></g></g><g id="shape-bc2e7133-bce3-8014-8007-8d0ea70a1811"><g class="fills" id="fills-bc2e7133-bce3-8014-8007-8d0ea70a1811"><path d="M288.16650390625,1783.1666259765625L321.5,1783.1666259765625" fill="none" stroke-linejoin="round" stroke-linecap="round" style="fill: none;"/></g><g fill="none" stroke-linejoin="round" stroke-linecap="round" id="strokes-72b9fc48-7eed-8043-8007-8f86163a8e6b-bc2e7133-bce3-8014-8007-8d0ea70a1811" class="strokes"><g class="stroke-shape"><path d="M288.16650390625,1783.1666259765625L321.5,1783.1666259765625" style="fill: none; stroke-width: 6; stroke: rgb(252, 255, 255); stroke-opacity: 1;"/></g></g></g></g><g id="shape-bc2e7133-bce3-8014-8007-8d0ea70a1808" class="size-6" rx="0" ry="0" style="fill: rgb(0, 0, 0);"><g id="shape-bc2e7133-bce3-8014-8007-8d0ea70a1812" style="display: none;"><g class="fills" id="fills-bc2e7133-bce3-8014-8007-8d0ea70a1812"><rect width="100" height="100" x="709" transform="matrix(1.000000, 0.000000, 0.000000, 1.000000, 0.000000, 0.000000)" style="fill: none;" ry="0" fill="none" rx="0" y="1745"/></g><g fill="none" id="strokes-72b9fc48-7eed-8043-8007-8f86163ac8a8-bc2e7133-bce3-8014-8007-8d0ea70a1812" class="strokes"><g class="outer-stroke-shape"><defs><mask id="outer-stroke-render-103-bc2e7133-bce3-8014-8007-8d0ea70a1812-0" x="700.5147186257615" y="1736.5147186257614" width="116.97056274847714" height="116.97056274847714" maskUnits="userSpaceOnUse"><use href="#stroke-shape-render-103-bc2e7133-bce3-8014-8007-8d0ea70a1812-0" style="fill: none; stroke: white; stroke-width: 12;"/><use href="#stroke-shape-render-103-bc2e7133-bce3-8014-8007-8d0ea70a1812-0" style="fill: black; stroke: none;"/></mask><rect rx="0" ry="0" x="709" y="1745" transform="matrix(1.000000, 0.000000, 0.000000, 1.000000, 0.000000, 0.000000)" width="100" height="100" id="stroke-shape-render-103-bc2e7133-bce3-8014-8007-8d0ea70a1812-0"/></defs><use href="#stroke-shape-render-103-bc2e7133-bce3-8014-8007-8d0ea70a1812-0" mask="url(#outer-stroke-render-103-bc2e7133-bce3-8014-8007-8d0ea70a1812-0)" style="fill: none; stroke-width: 12; stroke: rgb(252, 255, 255); stroke-opacity: 1;"/><use href="#stroke-shape-render-103-bc2e7133-bce3-8014-8007-8d0ea70a1812-0" style="fill: none; stroke-width: 6; stroke: none; stroke-opacity: 1;"/></g></g></g><g id="shape-bc2e7133-bce3-8014-8007-8d0ea70a1813"><g class="fills" id="fills-bc2e7133-bce3-8014-8007-8d0ea70a1813"><path d="M752.095947265625,1761.4163818359375C752.470703125,1759.1580810546875,754.42919921875,1757.5,756.720703125,1757.5L761.275146484375,1757.5C763.566650390625,1757.5,765.52490234375,1759.1580810546875,765.89990234375,1761.4163818359375L766.520751953125,1765.1416015625C766.8125,1766.9085693359375,768.12109375,1768.3250732421875,769.77099609375,1769.016845703125C771.42919921875,1769.699951171875,773.33349609375,1769.6083984375,774.79150390625,1768.566650390625L777.8623046875,1766.3709716796875C779.7275390625,1765.037353515625,782.28369140625,1765.2489013671875,783.904296875,1766.8709716796875L787.125,1770.0955810546875C788.75,1771.716552734375,788.95849609375,1774.27099609375,787.625,1776.1375732421875L785.42919921875,1779.2081298828125C784.3876953125,1780.6668701171875,784.2958984375,1782.566650390625,784.9833984375,1784.2247314453125C785.6708984375,1785.8792724609375,787.087646484375,1787.1834716796875,788.8583984375,1787.474853515625L792.5791015625,1788.0999755859375C794.841796875,1788.474853515625,796.49609375,1790.428955078125,796.49609375,1792.7208251953125L796.49609375,1797.2791748046875C796.49609375,1799.571044921875,794.841796875,1801.529296875,792.5791015625,1801.904052734375L788.85400390625,1802.525146484375C787.087646484375,1802.8165283203125,785.6708984375,1804.1207275390625,784.9833984375,1805.7752685546875C784.2958984375,1807.433349609375,784.3876953125,1809.3331298828125,785.42919921875,1810.7918701171875L787.625,1813.866455078125C788.95849609375,1815.72900390625,788.74560546875,1818.283447265625,787.125,1819.908447265625L783.89990234375,1823.1290283203125C782.280029296875,1824.74853515625,779.726806640625,1824.9600830078125,777.8623046875,1823.6290283203125L774.78759765625,1821.433349609375C773.329345703125,1820.3916015625,771.42919921875,1820.300048828125,769.77490234375,1820.98779296875C768.11669921875,1821.6749267578125,766.816650390625,1823.0914306640625,766.520751953125,1824.8583984375L765.89990234375,1828.5836181640625C765.52490234375,1830.8419189453125,763.566650390625,1832.5,761.275146484375,1832.5L756.716796875,1832.5C754.4248046875,1832.5,752.470703125,1830.8419189453125,752.091552734375,1828.5836181640625L751.474853515625,1824.8583984375C751.17919921875,1823.0914306640625,749.875,1821.6749267578125,748.220947265625,1820.983154296875C746.5625,1820.300048828125,744.66259765625,1820.3916015625,743.2041015625,1821.433349609375L740.129150390625,1823.6290283203125C738.2666015625,1824.962646484375,735.71240234375,1824.75,734.08740234375,1823.1290283203125L730.86669921875,1819.9044189453125C729.244873046875,1818.283447265625,729.033203125,1815.7275390625,730.36669921875,1813.8624267578125L732.5625,1810.7918701171875C733.604248046875,1809.3331298828125,733.69580078125,1807.433349609375,733.012451171875,1805.7752685546875C732.3251953125,1804.1207275390625,730.904296875,1802.8165283203125,729.137451171875,1802.525146484375L725.41259765625,1801.9000244140625C723.154052734375,1801.525146484375,721.495849609375,1799.56640625,721.495849609375,1797.2791748046875L721.495849609375,1792.7208251953125C721.495849609375,1790.428955078125,723.154052734375,1788.470703125,725.41259765625,1788.095947265625L729.137451171875,1787.474853515625C730.904296875,1787.1834716796875,732.3251953125,1785.8792724609375,733.012451171875,1784.2247314453125C733.699951171875,1782.566650390625,733.6083984375,1780.6668701171875,732.5625,1779.2081298828125L730.37109375,1776.133544921875C729.03759765625,1774.2684326171875,729.2490234375,1771.7120361328125,730.870849609375,1770.091552734375L734.091552734375,1766.8709716796875C735.71240234375,1765.2489013671875,738.26806640625,1765.037353515625,740.13330078125,1766.3709716796875L743.2041015625,1768.566650390625C744.66259765625,1769.6083984375,746.566650390625,1769.699951171875,748.220947265625,1769.01220703125C749.875,1768.3250732421875,751.17919921875,1766.9085693359375,751.470703125,1765.1416015625L752.095947265625,1761.4163818359375Z" fill="none" stroke-linecap="round" stroke-linejoin="round" style="fill: none;"/></g><g fill="none" stroke-linecap="round" stroke-linejoin="round" id="strokes-72b9fc48-7eed-8043-8007-8f86163b4f75-bc2e7133-bce3-8014-8007-8d0ea70a1813" class="strokes"><g class="outer-stroke-shape"><defs><mask id="outer-stroke-render-104-bc2e7133-bce3-8014-8007-8d0ea70a1813-0" x="707.0105522610917" y="1743.0147186257614" width="103.97056473529878" height="103.97056274847714" maskUnits="userSpaceOnUse"><use href="#stroke-shape-render-104-bc2e7133-bce3-8014-8007-8d0ea70a1813-0" style="fill: none; stroke: white; stroke-width: 12;"/><use href="#stroke-shape-render-104-bc2e7133-bce3-8014-8007-8d0ea70a1813-0" style="fill: black; stroke: none;"/></mask><path d="M752.095947265625,1761.4163818359375C752.470703125,1759.1580810546875,754.42919921875,1757.5,756.720703125,1757.5L761.275146484375,1757.5C763.566650390625,1757.5,765.52490234375,1759.1580810546875,765.89990234375,1761.4163818359375L766.520751953125,1765.1416015625C766.8125,1766.9085693359375,768.12109375,1768.3250732421875,769.77099609375,1769.016845703125C771.42919921875,1769.699951171875,773.33349609375,1769.6083984375,774.79150390625,1768.566650390625L777.8623046875,1766.3709716796875C779.7275390625,1765.037353515625,782.28369140625,1765.2489013671875,783.904296875,1766.8709716796875L787.125,1770.0955810546875C788.75,1771.716552734375,788.95849609375,1774.27099609375,787.625,1776.1375732421875L785.42919921875,1779.2081298828125C784.3876953125,1780.6668701171875,784.2958984375,1782.566650390625,784.9833984375,1784.2247314453125C785.6708984375,1785.8792724609375,787.087646484375,1787.1834716796875,788.8583984375,1787.474853515625L792.5791015625,1788.0999755859375C794.841796875,1788.474853515625,796.49609375,1790.428955078125,796.49609375,1792.7208251953125L796.49609375,1797.2791748046875C796.49609375,1799.571044921875,794.841796875,1801.529296875,792.5791015625,1801.904052734375L788.85400390625,1802.525146484375C787.087646484375,1802.8165283203125,785.6708984375,1804.1207275390625,784.9833984375,1805.7752685546875C784.2958984375,1807.433349609375,784.3876953125,1809.3331298828125,785.42919921875,1810.7918701171875L787.625,1813.866455078125C788.95849609375,1815.72900390625,788.74560546875,1818.283447265625,787.125,1819.908447265625L783.89990234375,1823.1290283203125C782.280029296875,1824.74853515625,779.726806640625,1824.9600830078125,777.8623046875,1823.6290283203125L774.78759765625,1821.433349609375C773.329345703125,1820.3916015625,771.42919921875,1820.300048828125,769.77490234375,1820.98779296875C768.11669921875,1821.6749267578125,766.816650390625,1823.0914306640625,766.520751953125,1824.8583984375L765.89990234375,1828.5836181640625C765.52490234375,1830.8419189453125,763.566650390625,1832.5,761.275146484375,1832.5L756.716796875,1832.5C754.4248046875,1832.5,752.470703125,1830.8419189453125,752.091552734375,1828.5836181640625L751.474853515625,1824.8583984375C751.17919921875,1823.0914306640625,749.875,1821.6749267578125,748.220947265625,1820.983154296875C746.5625,1820.300048828125,744.66259765625,1820.3916015625,743.2041015625,1821.433349609375L740.129150390625,1823.6290283203125C738.2666015625,1824.962646484375,735.71240234375,1824.75,734.08740234375,1823.1290283203125L730.86669921875,1819.9044189453125C729.244873046875,1818.283447265625,729.033203125,1815.7275390625,730.36669921875,1813.8624267578125L732.5625,1810.7918701171875C733.604248046875,1809.3331298828125,733.69580078125,1807.433349609375,733.012451171875,1805.7752685546875C732.3251953125,1804.1207275390625,730.904296875,1802.8165283203125,729.137451171875,1802.525146484375L725.41259765625,1801.9000244140625C723.154052734375,1801.525146484375,721.495849609375,1799.56640625,721.495849609375,1797.2791748046875L721.495849609375,1792.7208251953125C721.495849609375,1790.428955078125,723.154052734375,1788.470703125,725.41259765625,1788.095947265625L729.137451171875,1787.474853515625C730.904296875,1787.1834716796875,732.3251953125,1785.8792724609375,733.012451171875,1784.2247314453125C733.699951171875,1782.566650390625,733.6083984375,1780.6668701171875,732.5625,1779.2081298828125L730.37109375,1776.133544921875C729.03759765625,1774.2684326171875,729.2490234375,1771.7120361328125,730.870849609375,1770.091552734375L734.091552734375,1766.8709716796875C735.71240234375,1765.2489013671875,738.26806640625,1765.037353515625,740.13330078125,1766.3709716796875L743.2041015625,1768.566650390625C744.66259765625,1769.6083984375,746.566650390625,1769.699951171875,748.220947265625,1769.01220703125C749.875,1768.3250732421875,751.17919921875,1766.9085693359375,751.470703125,1765.1416015625L752.095947265625,1761.4163818359375Z" id="stroke-shape-render-104-bc2e7133-bce3-8014-8007-8d0ea70a1813-0"/></defs><use href="#stroke-shape-render-104-bc2e7133-bce3-8014-8007-8d0ea70a1813-0" mask="url(#outer-stroke-render-104-bc2e7133-bce3-8014-8007-8d0ea70a1813-0)" style="fill: none; stroke-width: 12; stroke: rgb(252, 255, 255); stroke-opacity: 1;"/><use href="#stroke-shape-render-104-bc2e7133-bce3-8014-8007-8d0ea70a1813-0" style="fill: none; stroke-width: 6; stroke: none; stroke-opacity: 1;"/></g></g></g><g id="shape-bc2e7133-bce3-8014-8007-8d0ea70a1814"><g class="fills" id="fills-bc2e7133-bce3-8014-8007-8d0ea70a1814"><path d="M771.5,1795C771.5,1801.903564453125,765.903564453125,1807.5,759,1807.5C752.096435546875,1807.5,746.5,1801.903564453125,746.5,1795C746.5,1788.096435546875,752.096435546875,1782.5,759,1782.5C765.903564453125,1782.5,771.5,1788.096435546875,771.5,1795Z" fill="none" stroke-linecap="round" stroke-linejoin="round" style="fill: none;"/></g><g fill="none" stroke-linecap="round" stroke-linejoin="round" id="strokes-72b9fc48-7eed-8043-8007-8f86163b9078-bc2e7133-bce3-8014-8007-8d0ea70a1814" class="strokes"><g class="outer-stroke-shape"><defs><mask id="outer-stroke-render-105-bc2e7133-bce3-8014-8007-8d0ea70a1814-0" x="732.0147186257615" y="1768.0147186257614" width="53.970562748477136" height="53.970562748477136" maskUnits="userSpaceOnUse"><use href="#stroke-shape-render-105-bc2e7133-bce3-8014-8007-8d0ea70a1814-0" style="fill: none; stroke: white; stroke-width: 12;"/><use href="#stroke-shape-render-105-bc2e7133-bce3-8014-8007-8d0ea70a1814-0" style="fill: black; stroke: none;"/></mask><path d="M771.5,1795C771.5,1801.903564453125,765.903564453125,1807.5,759,1807.5C752.096435546875,1807.5,746.5,1801.903564453125,746.5,1795C746.5,1788.096435546875,752.096435546875,1782.5,759,1782.5C765.903564453125,1782.5,771.5,1788.096435546875,771.5,1795Z" id="stroke-shape-render-105-bc2e7133-bce3-8014-8007-8d0ea70a1814-0"/></defs><use href="#stroke-shape-render-105-bc2e7133-bce3-8014-8007-8d0ea70a1814-0" mask="url(#outer-stroke-render-105-bc2e7133-bce3-8014-8007-8d0ea70a1814-0)" style="fill: none; stroke-width: 12; stroke: rgb(252, 255, 255); stroke-opacity: 1;"/><use href="#stroke-shape-render-105-bc2e7133-bce3-8014-8007-8d0ea70a1814-0" style="fill: none; stroke-width: 6; stroke: none; stroke-opacity: 1;"/></g></g></g></g><g id="shape-bc2e7133-bce3-8014-8007-8d0f48938b86"><g transform="matrix(1.000000, 0.000000, 0.000000, 1.000000, 0.000000, 0.000000)" class="text-container" x="196" y="83" width="290.00000000000045" height="87" rx="0" ry="0"><defs><pattern patternUnits="objectBoundingBox" width="289.015625" height="92" id="fill-0-render-106-0"><g><rect width="289.015625" height="92" style="fill: rgb(252, 255, 255); fill-opacity: 1;"/></g></pattern></defs><g class="fills" id="fills-bc2e7133-bce3-8014-8007-8d0f48938b86"><text x="196" y="172" dominant-baseline="ideographic" textLength="289.015625" lengthAdjust="spacingAndGlyphs" style="text-transform: none; font-family: &quot;Space Grotesk&quot;; letter-spacing: normal; font-style: normal; font-weight: 400; white-space: pre; font-size: 72px; text-decoration: none; direction: ltr; fill: rgb(252, 255, 255); fill-opacity: 1;">Settings</text></g></g></g><g id="shape-bc2e7133-bce3-8014-8007-8d0ea70a1806"><g transform="matrix(1.000000, 0.000000, 0.000000, 1.000000, 0.000000, 0.000000)" class="text-container" x="80" y="284" width="161" height="58" rx="0" ry="0"><defs><pattern patternUnits="objectBoundingBox" width="160.8125" height="61" id="fill-0-render-107-0"><g><rect width="160.8125" height="61" style="fill: rgb(45, 49, 50); fill-opacity: 1;"/></g></pattern></defs><g class="fills" id="fills-bc2e7133-bce3-8014-8007-8d0ea70a1806"><text x="80" y="343" dominant-baseline="ideographic" textLength="160.8125" lengthAdjust="spacingAndGlyphs" style="text-transform: none; font-family: &quot;Space Grotesk&quot;; letter-spacing: normal; font-style: normal; font-weight: 400; white-space: pre; font-size: 48px; text-decoration: none; direction: ltr; fill: rgb(45, 49, 50); fill-opacity: 1;">Search</text></g></g></g><g id="shape-bc2e7133-bce3-8014-8007-8d0fc3ce9ba6"><g class="fills" id="fills-bc2e7133-bce3-8014-8007-8d0fc3ce9ba6"><path d="M111,1078L977.829345703125,1078"/></g><g id="strokes-72b9fc48-7eed-8043-8007-8f86163c6537-bc2e7133-bce3-8014-8007-8d0fc3ce9ba6" class="strokes"><g class="stroke-shape"><path d="M111,1078L977.829345703125,1078" style="fill: none; stroke-width: 8; stroke: rgb(252, 255, 255); stroke-opacity: 1;"/></g></g></g><g id="shape-bc2e7133-bce3-8014-8007-8d105748c053"><g transform="matrix(1.000000, 0.000000, 0.000000, 1.000000, 0.000000, 0.000000)" class="text-container" x="124" y="981" width="329" height="87" rx="0" ry="0"><defs><pattern patternUnits="objectBoundingBox" width="328.375" height="92" id="fill-0-render-109-0"><g><rect width="328.375" height="92" style="fill: rgb(252, 255, 255); fill-opacity: 0.4;"/></g></pattern></defs><g class="fills" id="fills-bc2e7133-bce3-8014-8007-8d105748c053"><text x="124" y="1070" dominant-baseline="ideographic" textLength="328.375" lengthAdjust="spacingAndGlyphs" style="text-transform: none; font-family: &quot;Space Grotesk&quot;; letter-spacing: normal; font-style: normal; font-weight: 400; white-space: pre; font-size: 72px; text-decoration: none; direction: ltr; fill: rgb(252, 255, 255); fill-opacity: 0.4;">Server url</text></g></g></g><g id="shape-bc2e7133-bce3-8014-8007-8d10de8d8c8f"><g transform="matrix(1.000000, 0.000000, 0.000000, 1.000000, 0.000000, 0.000000)" class="text-container" x="161" y="1355" width="270" height="87" rx="0" ry="0"><defs><pattern patternUnits="objectBoundingBox" width="269.96875" height="92" id="fill-0-render-110-0"><g><rect width="269.96875" height="92" style="fill: rgb(45, 49, 50); fill-opacity: 1;"/></g></pattern></defs><g class="fills" id="fills-bc2e7133-bce3-8014-8007-8d10de8d8c8f"><text x="161" y="1444" dominant-baseline="ideographic" textLength="269.96875" lengthAdjust="spacingAndGlyphs" style="text-transform: none; font-family: &quot;Space Grotesk&quot;; letter-spacing: normal; font-style: normal; font-weight: 400; white-space: pre; font-size: 72px; text-decoration: none; direction: ltr; fill: rgb(45, 49, 50); fill-opacity: 1;">Log out</text></g></g></g><g id="shape-bc2e7133-bce3-8014-8007-8d10f0148260"><g transform="matrix(1.000000, 0.000000, 0.000000, 1.000000, 0.000000, 0.000000)" class="text-container" x="628" y="1356" width="345" height="87" rx="0" ry="0"><defs><pattern patternUnits="objectBoundingBox" width="344.03125" height="92" id="fill-0-render-111-0"><g><rect width="344.03125" height="92" style="fill: rgb(45, 49, 50); fill-opacity: 1;"/></g></pattern></defs><g class="fills" id="fills-bc2e7133-bce3-8014-8007-8d10f0148260"><text x="628" y="1445" dominant-baseline="ideographic" textLength="344.03125" lengthAdjust="spacingAndGlyphs" style="text-transform: none; font-family: &quot;Space Grotesk&quot;; letter-spacing: normal; font-style: normal; font-weight: 400; white-space: pre; font-size: 72px; text-decoration: none; direction: ltr; fill: rgb(45, 49, 50); fill-opacity: 1;">Ip change</text></g></g></g></g></g></g></g></g></g></svg>